<svg width="1024" height="768" viewBox="0 0 1024 768" fill="none" xmlns="http://www.w3.org/2000/svg">
<rect width="1024" height="768" fill="black"/>
<g filter="url(#filter0_n_190_125)">
<path d="M331.443 322.838L333.653 317.763C341.191 317.937 347.386 319.108 352.238 321.277C357.177 323.359 360.859 326.308 363.285 330.125C365.711 333.855 366.924 338.193 366.924 343.138C366.924 348.429 365.711 353.157 363.285 357.321C360.859 361.398 357.22 364.652 352.368 367.081C347.602 369.423 341.624 370.594 334.432 370.594H262.431L269.969 320.496L262.431 273H331.833C340.844 273 347.862 275.125 352.888 279.376C357.913 283.54 360.426 289.352 360.426 296.813C360.426 300.89 359.473 304.794 357.566 308.524C355.66 312.254 352.584 315.421 348.339 318.023C344.18 320.539 338.548 322.144 331.443 322.838ZM289.074 364.348L278.677 351.726H327.154C331.053 351.726 334.086 350.772 336.252 348.863C338.418 346.955 339.501 344.309 339.501 340.925C339.501 337.542 338.331 334.853 335.992 332.858C333.653 330.776 330.187 329.735 325.595 329.735H285.565V311.257H321.956C325.075 311.257 327.674 310.346 329.754 308.524C331.92 306.616 333.003 304.057 333.003 300.847C333.003 298.244 332.093 296.119 330.274 294.471C328.454 292.736 325.855 291.868 322.476 291.868H278.807L289.074 279.246L295.703 320.496L289.074 364.348Z" fill="#8B0B00"/>
<path d="M394.308 351.856V330.125H461.501V351.856H394.308ZM446.165 273L490.483 370.594H461.761L424.59 284.451H432.388L395.088 370.594H366.366L410.684 273H446.165Z" fill="#8B0B00"/>
<path d="M526.618 273V358.622L514.531 346.651H587.442V370.594H499.715V273H526.618Z" fill="#8B0B00"/>
<path d="M625.87 273V358.622L613.783 346.651H686.694V370.594H598.967V273H625.87Z" fill="#8B0B00"/>
<path d="M326.141 448.68L328.194 443.963C335.2 444.125 340.958 445.213 345.467 447.229C350.057 449.164 353.48 451.905 355.735 455.453C357.989 458.92 359.117 462.951 359.117 467.547C359.117 472.465 357.989 476.859 355.735 480.729C353.48 484.519 350.098 487.542 345.588 489.8C341.159 491.976 335.603 493.065 328.919 493.065H262L269.006 446.503L262 402.36H326.503C334.878 402.36 341.401 404.335 346.071 408.286C350.742 412.156 353.077 417.558 353.077 424.492C353.077 428.281 352.191 431.91 350.42 435.377C348.648 438.843 345.789 441.786 341.844 444.205C337.978 446.543 332.744 448.035 326.141 448.68ZM286.762 487.26L277.099 475.529H322.154C325.778 475.529 328.597 474.642 330.61 472.868C332.623 471.094 333.63 468.635 333.63 465.491C333.63 462.346 332.543 459.847 330.368 457.992C328.194 456.057 324.973 455.09 320.705 455.09H283.501V437.916H317.323C320.222 437.916 322.638 437.07 324.57 435.377C326.584 433.603 327.59 431.224 327.59 428.241C327.59 425.822 326.745 423.847 325.054 422.315C323.362 420.702 320.947 419.896 317.806 419.896H277.22L286.762 408.165L292.923 446.503L286.762 487.26Z" fill="white"/>
<path d="M384.568 475.65V455.453H447.018V475.65H384.568ZM432.764 402.36L473.954 493.065H447.259L412.713 413.003H419.96L385.293 493.065H358.598L399.788 402.36H432.764Z" fill="white"/>
<path d="M577.728 455.09C576.842 463.072 574.104 470.086 569.514 476.133C564.924 482.1 558.884 486.736 551.395 490.041C543.987 493.347 535.451 495 525.787 495C515.238 495 506.018 493.025 498.126 489.074C490.234 485.123 484.074 479.6 479.645 472.505C475.296 465.41 473.122 457.146 473.122 447.712C473.122 438.279 475.296 430.015 479.645 422.92C484.074 415.825 490.234 410.302 498.126 406.351C506.018 402.4 515.238 400.425 525.787 400.425C535.451 400.425 543.987 402.078 551.395 405.383C558.884 408.689 564.924 413.365 569.514 419.412C574.104 425.379 576.842 432.353 577.728 440.335H552.603C551.798 436.465 550.228 433.2 547.892 430.539C545.557 427.798 542.497 425.701 538.712 424.25C535.008 422.799 530.7 422.073 525.787 422.073C520.15 422.073 515.279 423.121 511.172 425.218C507.065 427.233 503.924 430.176 501.75 434.046C499.576 437.836 498.488 442.391 498.488 447.712C498.488 453.034 499.576 457.63 501.75 461.5C503.924 465.289 507.065 468.232 511.172 470.328C515.279 472.344 520.15 473.352 525.787 473.352C530.7 473.352 535.008 472.666 538.712 471.296C542.497 469.925 545.557 467.869 547.892 465.128C550.228 462.386 551.798 459.04 552.603 455.09H577.728Z" fill="white"/>
<path d="M589.879 493.065V402.36H614.762V473.11L608.119 467.909L659.455 402.36H685.909L612.467 493.065H589.879ZM633.123 449.768L651.483 434.53L687.117 493.065H658.73L633.123 449.768Z" fill="white"/>
<path d="M730.891 273.957H757.84L753.826 429.246H735.191L730.891 273.957ZM744.365 491.247C739.205 491.247 734.809 489.525 731.177 486.08C727.737 482.636 726.017 478.33 726.017 473.163C726.017 467.997 727.737 463.787 731.177 460.534C734.809 457.089 739.205 455.367 744.365 455.367C749.717 455.367 754.113 457.089 757.553 460.534C761.184 463.787 763 467.997 763 473.163C763 478.33 761.184 482.636 757.553 486.08C754.113 489.525 749.717 491.247 744.365 491.247Z" fill="white"/>
</g>
<defs>
<filter id="filter0_n_190_125" x="262" y="273" width="501" height="222" filterUnits="userSpaceOnUse" color-interpolation-filters="sRGB">
<feFlood flood-opacity="0" result="BackgroundImageFix"/>
<feBlend mode="normal" in="SourceGraphic" in2="BackgroundImageFix" result="shape"/>
<feTurbulence type="fractalNoise" baseFrequency="2 2" stitchTiles="stitch" numOctaves="3" result="noise" seed="1275" />
<feColorMatrix in="noise" type="luminanceToAlpha" result="alphaNoise" />
<feComponentTransfer in="alphaNoise" result="coloredNoise1">
<feFuncA type="discrete" tableValues="1 1 1 1 1 1 1 1 1 1 1 1 1 1 1 1 1 1 1 1 1 1 1 1 1 1 1 1 1 1 1 1 1 1 1 1 1 1 1 1 1 1 1 1 1 1 1 1 1 1 1 0 0 0 0 0 0 0 0 0 0 0 0 0 0 0 0 0 0 0 0 0 0 0 0 0 0 0 0 0 0 0 0 0 0 0 0 0 0 0 0 0 0 0 0 0 0 0 0 0 "/>
</feComponentTransfer>
<feComposite operator="in" in2="shape" in="coloredNoise1" result="noise1Clipped" />
<feFlood flood-color="rgba(139, 11, 0, 0.25)" result="color1Flood" />
<feComposite operator="in" in2="noise1Clipped" in="color1Flood" result="color1" />
<feMerge result="effect1_noise_190_125">
<feMergeNode in="shape" />
<feMergeNode in="color1" />
</feMerge>
</filter>
</defs>
</svg>
