<svg width="1024" height="768" viewBox="0 0 1024 768" fill="none" xmlns="http://www.w3.org/2000/svg">
<rect width="1024" height="768" fill="#D6E3FF"/>
<g filter="url(#filter0_n_190_149)">
<mask id="path-1-inside-1_190_149" fill="white">
<path d="M353.812 389.25C353.812 374.292 357.979 362.646 366.312 354.312C374.646 345.979 386.25 341.812 401.125 341.812C416.375 341.812 428.125 345.917 436.375 354.125C444.625 362.292 448.75 373.75 448.75 388.5C448.75 399.208 446.938 408 443.312 414.875C439.729 421.708 434.521 427.042 427.688 430.875C420.896 434.667 412.417 436.562 402.25 436.562C391.917 436.562 383.354 434.917 376.562 431.625C369.812 428.333 364.333 423.125 360.125 416C355.917 408.875 353.812 399.958 353.812 389.25ZM382.125 389.375C382.125 398.625 383.833 405.271 387.25 409.312C390.708 413.354 395.396 415.375 401.312 415.375C407.396 415.375 412.104 413.396 415.438 409.438C418.771 405.479 420.438 398.375 420.438 388.125C420.438 379.5 418.688 373.208 415.188 369.25C411.729 365.25 407.021 363.25 401.062 363.25C395.354 363.25 390.771 365.271 387.312 369.312C383.854 373.354 382.125 380.042 382.125 389.375ZM574.663 389.25C574.663 374.292 578.829 362.646 587.163 354.312C595.496 345.979 607.1 341.812 621.975 341.812C637.225 341.812 648.975 345.917 657.225 354.125C665.475 362.292 669.6 373.75 669.6 388.5C669.6 399.208 667.788 408 664.163 414.875C660.579 421.708 655.371 427.042 648.538 430.875C641.746 434.667 633.267 436.562 623.1 436.562C612.767 436.562 604.204 434.917 597.413 431.625C590.663 428.333 585.183 423.125 580.975 416C576.767 408.875 574.663 399.958 574.663 389.25ZM602.975 389.375C602.975 398.625 604.683 405.271 608.1 409.312C611.558 413.354 616.246 415.375 622.163 415.375C628.246 415.375 632.954 413.396 636.288 409.438C639.621 405.479 641.288 398.375 641.288 388.125C641.288 379.5 639.538 373.208 636.038 369.25C632.579 365.25 627.871 363.25 621.913 363.25C616.204 363.25 611.621 365.271 608.163 369.312C604.704 373.354 602.975 380.042 602.975 389.375Z"/>
<path d="M463.863 343.375H495.05L511.3 371.562L527.05 343.375H557.925L529.425 387.75L560.613 435H528.8L510.738 405.562L492.613 435H460.988L492.613 387.25L463.863 343.375Z"/>
</mask>
<path d="M353.812 389.25C353.812 374.292 357.979 362.646 366.312 354.312C374.646 345.979 386.25 341.812 401.125 341.812C416.375 341.812 428.125 345.917 436.375 354.125C444.625 362.292 448.75 373.75 448.75 388.5C448.75 399.208 446.938 408 443.312 414.875C439.729 421.708 434.521 427.042 427.688 430.875C420.896 434.667 412.417 436.562 402.25 436.562C391.917 436.562 383.354 434.917 376.562 431.625C369.812 428.333 364.333 423.125 360.125 416C355.917 408.875 353.812 399.958 353.812 389.25ZM382.125 389.375C382.125 398.625 383.833 405.271 387.25 409.312C390.708 413.354 395.396 415.375 401.312 415.375C407.396 415.375 412.104 413.396 415.438 409.438C418.771 405.479 420.438 398.375 420.438 388.125C420.438 379.5 418.688 373.208 415.188 369.25C411.729 365.25 407.021 363.25 401.062 363.25C395.354 363.25 390.771 365.271 387.312 369.312C383.854 373.354 382.125 380.042 382.125 389.375ZM574.663 389.25C574.663 374.292 578.829 362.646 587.163 354.312C595.496 345.979 607.1 341.812 621.975 341.812C637.225 341.812 648.975 345.917 657.225 354.125C665.475 362.292 669.6 373.75 669.6 388.5C669.6 399.208 667.788 408 664.163 414.875C660.579 421.708 655.371 427.042 648.538 430.875C641.746 434.667 633.267 436.562 623.1 436.562C612.767 436.562 604.204 434.917 597.413 431.625C590.663 428.333 585.183 423.125 580.975 416C576.767 408.875 574.663 399.958 574.663 389.25ZM602.975 389.375C602.975 398.625 604.683 405.271 608.1 409.312C611.558 413.354 616.246 415.375 622.163 415.375C628.246 415.375 632.954 413.396 636.288 409.438C639.621 405.479 641.288 398.375 641.288 388.125C641.288 379.5 639.538 373.208 636.038 369.25C632.579 365.25 627.871 363.25 621.913 363.25C616.204 363.25 611.621 365.271 608.163 369.312C604.704 373.354 602.975 380.042 602.975 389.375Z" fill="#121AFF"/>
<path d="M436.375 354.125L434.964 355.543L434.968 355.546L436.375 354.125ZM443.312 414.875L441.543 413.942L441.541 413.946L443.312 414.875ZM427.688 430.875L428.662 432.621L428.666 432.619L427.688 430.875ZM376.562 431.625L375.686 433.423L375.69 433.425L376.562 431.625ZM387.25 409.312L385.723 410.604L385.73 410.613L387.25 409.312ZM415.188 369.25L413.675 370.558L413.682 370.566L413.689 370.575L415.188 369.25ZM387.312 369.312L388.832 370.613L387.312 369.312ZM353.812 389.25H355.812C355.812 374.672 359.863 363.591 367.727 355.727L366.312 354.312L364.898 352.898C356.096 361.701 351.812 373.911 351.812 389.25H353.812ZM366.312 354.312L367.727 355.727C375.593 347.861 386.634 343.812 401.125 343.812V341.812V339.812C385.866 339.812 373.699 344.098 364.898 352.898L366.312 354.312ZM401.125 341.812V343.812C416.017 343.812 427.195 347.812 434.964 355.543L436.375 354.125L437.786 352.707C429.055 344.021 416.733 339.812 401.125 339.812V341.812ZM436.375 354.125L434.968 355.546C442.743 363.242 446.75 374.132 446.75 388.5H448.75H450.75C450.75 373.368 446.507 361.341 437.782 352.704L436.375 354.125ZM448.75 388.5H446.75C446.75 399 444.97 407.443 441.543 413.942L443.312 414.875L445.082 415.808C448.905 408.557 450.75 399.417 450.75 388.5H448.75ZM443.312 414.875L441.541 413.946C438.141 420.431 433.21 425.484 426.709 429.131L427.688 430.875L428.666 432.619C435.831 428.6 441.318 422.986 445.084 415.804L443.312 414.875ZM427.688 430.875L426.713 429.129C420.297 432.711 412.177 434.562 402.25 434.562V436.562V438.562C412.656 438.562 421.495 436.623 428.662 432.621L427.688 430.875ZM402.25 436.562V434.562C392.113 434.562 383.873 432.946 377.435 429.825L376.562 431.625L375.69 433.425C382.835 436.888 391.72 438.562 402.25 438.562V436.562ZM376.562 431.625L377.439 429.827C371.077 426.725 365.877 421.806 361.847 414.983L360.125 416L358.403 417.017C362.789 424.444 368.548 429.942 375.686 433.423L376.562 431.625ZM360.125 416L361.847 414.983C357.867 408.244 355.812 399.704 355.812 389.25H353.812H351.812C351.812 400.213 353.967 409.506 358.403 417.017L360.125 416ZM382.125 389.375H380.125C380.125 398.778 381.844 406.015 385.723 410.604L387.25 409.312L388.777 408.021C385.823 404.526 384.125 398.472 384.125 389.375H382.125ZM387.25 409.312L385.73 410.613C389.614 415.152 394.885 417.375 401.312 417.375V415.375V413.375C395.907 413.375 391.803 411.557 388.77 408.012L387.25 409.312ZM401.312 415.375V417.375C407.871 417.375 413.186 415.216 416.967 410.726L415.438 409.438L413.908 408.149C411.023 411.575 406.921 413.375 401.312 413.375V415.375ZM415.438 409.438L416.967 410.726C420.787 406.19 422.438 398.452 422.438 388.125H420.438H418.438C418.438 398.298 416.755 404.768 413.908 408.149L415.438 409.438ZM420.438 388.125H422.438C422.438 379.301 420.66 372.419 416.686 367.925L415.188 369.25L413.689 370.575C416.715 373.997 418.438 379.699 418.438 388.125H420.438ZM415.188 369.25L416.7 367.942C412.811 363.444 407.519 361.25 401.062 361.25V363.25V365.25C406.522 365.25 410.647 367.056 413.675 370.558L415.188 369.25ZM401.062 363.25V361.25C394.818 361.25 389.662 363.491 385.793 368.012L387.312 369.312L388.832 370.613C391.88 367.051 395.89 365.25 401.062 365.25V363.25ZM387.312 369.312L385.793 368.012C381.864 372.604 380.125 379.89 380.125 389.375H382.125H384.125C384.125 380.193 385.844 374.104 388.832 370.613L387.312 369.312ZM463.863 343.375V341.375H460.161L462.19 344.471L463.863 343.375ZM495.05 343.375L496.783 342.376L496.206 341.375H495.05V343.375ZM511.3 371.562L509.567 372.561L511.327 375.614L513.046 372.538L511.3 371.562ZM527.05 343.375V341.375H525.876L525.304 342.399L527.05 343.375ZM557.925 343.375L559.608 344.456L561.586 341.375H557.925V343.375ZM529.425 387.75L527.742 386.669L527.038 387.765L527.756 388.852L529.425 387.75ZM560.613 435V437H564.329L562.282 433.898L560.613 435ZM528.8 435L527.095 436.046L527.681 437H528.8V435ZM510.738 405.562L512.442 404.517L510.74 401.743L509.034 404.514L510.738 405.562ZM492.613 435V437H493.73L494.316 436.049L492.613 435ZM460.988 435L459.32 433.896L457.264 437H460.988V435ZM492.613 387.25L494.28 388.354L495.007 387.256L494.285 386.154L492.613 387.25ZM463.863 343.375V345.375H495.05V343.375V341.375H463.863V343.375ZM495.05 343.375L493.317 344.374L509.567 372.561L511.3 371.562L513.033 370.564L496.783 342.376L495.05 343.375ZM511.3 371.562L513.046 372.538L528.796 344.351L527.05 343.375L525.304 342.399L509.554 370.587L511.3 371.562ZM527.05 343.375V345.375H557.925V343.375V341.375H527.05V343.375ZM557.925 343.375L556.242 342.294L527.742 386.669L529.425 387.75L531.108 388.831L559.608 344.456L557.925 343.375ZM529.425 387.75L527.756 388.852L558.943 436.102L560.613 435L562.282 433.898L531.094 386.648L529.425 387.75ZM560.613 435V433H528.8V435V437H560.613V435ZM528.8 435L530.505 433.954L512.442 404.517L510.738 405.562L509.033 406.608L527.095 436.046L528.8 435ZM510.738 405.562L509.034 404.514L490.909 433.951L492.613 435L494.316 436.049L512.441 406.611L510.738 405.562ZM492.613 435V433H460.988V435V437H492.613V435ZM460.988 435L462.655 436.104L494.28 388.354L492.613 387.25L490.945 386.146L459.32 433.896L460.988 435ZM492.613 387.25L494.285 386.154L465.535 342.279L463.863 343.375L462.19 344.471L490.94 388.346L492.613 387.25ZM657.225 354.125L655.814 355.543L655.818 355.546L657.225 354.125ZM664.163 414.875L662.393 413.942L662.391 413.946L664.163 414.875ZM648.538 430.875L649.512 432.621L649.516 432.619L648.538 430.875ZM597.413 431.625L596.536 433.423L596.54 433.425L597.413 431.625ZM608.1 409.312L606.573 410.604L606.58 410.613L608.1 409.312ZM636.038 369.25L634.525 370.558L634.532 370.566L634.539 370.575L636.038 369.25ZM608.163 369.312L609.682 370.613L608.163 369.312ZM574.663 389.25H576.663C576.663 374.672 580.713 363.591 588.577 355.727L587.163 354.312L585.748 352.898C576.946 361.701 572.663 373.911 572.663 389.25H574.663ZM587.163 354.312L588.577 355.727C596.443 347.861 607.484 343.812 621.975 343.812V341.812V339.812C606.716 339.812 594.549 344.098 585.748 352.898L587.163 354.312ZM621.975 341.812V343.812C636.867 343.812 648.045 347.812 655.814 355.543L657.225 354.125L658.636 352.707C649.905 344.021 637.583 339.812 621.975 339.812V341.812ZM657.225 354.125L655.818 355.546C663.593 363.242 667.6 374.132 667.6 388.5H669.6H671.6C671.6 373.368 667.357 361.341 658.632 352.704L657.225 354.125ZM669.6 388.5H667.6C667.6 399 665.82 407.443 662.393 413.942L664.163 414.875L665.932 415.808C669.755 408.557 671.6 399.417 671.6 388.5H669.6ZM664.163 414.875L662.391 413.946C658.991 420.431 654.06 425.484 647.559 429.131L648.538 430.875L649.516 432.619C656.681 428.6 662.168 422.986 665.934 415.804L664.163 414.875ZM648.538 430.875L647.563 429.129C641.147 432.711 633.027 434.562 623.1 434.562V436.562V438.562C633.506 438.562 642.345 436.623 649.512 432.621L648.538 430.875ZM623.1 436.562V434.562C612.963 434.562 604.723 432.946 598.285 429.825L597.413 431.625L596.54 433.425C603.685 436.888 612.57 438.562 623.1 438.562V436.562ZM597.413 431.625L598.289 429.827C591.927 426.725 586.727 421.806 582.697 414.983L580.975 416L579.253 417.017C583.639 424.444 589.398 429.942 596.536 433.423L597.413 431.625ZM580.975 416L582.697 414.983C578.717 408.244 576.663 399.704 576.663 389.25H574.663H572.663C572.663 400.213 574.817 409.506 579.253 417.017L580.975 416ZM602.975 389.375H600.975C600.975 398.778 602.694 406.015 606.573 410.604L608.1 409.312L609.627 408.021C606.673 404.526 604.975 398.472 604.975 389.375H602.975ZM608.1 409.312L606.58 410.613C610.464 415.152 615.735 417.375 622.163 417.375V415.375V413.375C616.757 413.375 612.653 411.557 609.62 408.012L608.1 409.312ZM622.163 415.375V417.375C628.721 417.375 634.036 415.216 637.817 410.726L636.288 409.438L634.758 408.149C631.873 411.575 627.771 413.375 622.163 413.375V415.375ZM636.288 409.438L637.817 410.726C641.637 406.19 643.288 398.452 643.288 388.125H641.288H639.288C639.288 398.298 637.605 404.768 634.758 408.149L636.288 409.438ZM641.288 388.125H643.288C643.288 379.301 641.51 372.419 637.536 367.925L636.038 369.25L634.539 370.575C637.565 373.997 639.288 379.699 639.288 388.125H641.288ZM636.038 369.25L637.55 367.942C633.661 363.444 628.369 361.25 621.913 361.25V363.25V365.25C627.372 365.25 631.497 367.056 634.525 370.558L636.038 369.25ZM621.913 363.25V361.25C615.668 361.25 610.512 363.491 606.643 368.012L608.163 369.312L609.682 370.613C612.73 367.051 616.74 365.25 621.913 365.25V363.25ZM608.163 369.312L606.643 368.012C602.714 372.604 600.975 379.89 600.975 389.375H602.975H604.975C604.975 380.193 606.694 374.104 609.682 370.613L608.163 369.312Z" fill="#121AFF" mask="url(#path-1-inside-1_190_149)"/>
</g>
<g filter="url(#filter1_n_190_149)">
<mask id="path-3-inside-2_190_149" fill="white">
<path d="M353.812 509.25C353.812 494.292 357.979 482.646 366.312 474.312C374.646 465.979 386.25 461.812 401.125 461.812C416.375 461.812 428.125 465.917 436.375 474.125C444.625 482.292 448.75 493.75 448.75 508.5C448.75 519.208 446.938 528 443.312 534.875C439.729 541.708 434.521 547.042 427.688 550.875C420.896 554.667 412.417 556.562 402.25 556.562C391.917 556.562 383.354 554.917 376.562 551.625C369.812 548.333 364.333 543.125 360.125 536C355.917 528.875 353.812 519.958 353.812 509.25ZM382.125 509.375C382.125 518.625 383.833 525.271 387.25 529.312C390.708 533.354 395.396 535.375 401.312 535.375C407.396 535.375 412.104 533.396 415.438 529.438C418.771 525.479 420.438 518.375 420.438 508.125C420.438 499.5 418.688 493.208 415.188 489.25C411.729 485.25 407.021 483.25 401.062 483.25C395.354 483.25 390.771 485.271 387.312 489.312C383.854 493.354 382.125 500.042 382.125 509.375ZM574.663 509.25C574.663 494.292 578.829 482.646 587.163 474.312C595.496 465.979 607.1 461.812 621.975 461.812C637.225 461.812 648.975 465.917 657.225 474.125C665.475 482.292 669.6 493.75 669.6 508.5C669.6 519.208 667.788 528 664.163 534.875C660.579 541.708 655.371 547.042 648.538 550.875C641.746 554.667 633.267 556.562 623.1 556.562C612.767 556.562 604.204 554.917 597.413 551.625C590.663 548.333 585.183 543.125 580.975 536C576.767 528.875 574.663 519.958 574.663 509.25ZM602.975 509.375C602.975 518.625 604.683 525.271 608.1 529.312C611.558 533.354 616.246 535.375 622.163 535.375C628.246 535.375 632.954 533.396 636.288 529.438C639.621 525.479 641.288 518.375 641.288 508.125C641.288 499.5 639.538 493.208 636.038 489.25C632.579 485.25 627.871 483.25 621.913 483.25C616.204 483.25 611.621 485.271 608.163 489.312C604.704 493.354 602.975 500.042 602.975 509.375Z"/>
<path d="M463.863 463.375H495.05L511.3 491.562L527.05 463.375H557.925L529.425 507.75L560.613 555H528.8L510.738 525.562L492.613 555H460.988L492.613 507.25L463.863 463.375Z"/>
</mask>
<path d="M463.863 463.375H495.05L511.3 491.562L527.05 463.375H557.925L529.425 507.75L560.613 555H528.8L510.738 525.562L492.613 555H460.988L492.613 507.25L463.863 463.375Z" fill="#121AFF"/>
<path d="M436.375 474.125L434.964 475.543L434.968 475.546L436.375 474.125ZM443.312 534.875L441.543 533.942L441.541 533.946L443.312 534.875ZM427.688 550.875L428.662 552.621L428.666 552.619L427.688 550.875ZM376.562 551.625L375.686 553.423L375.69 553.425L376.562 551.625ZM387.25 529.312L385.723 530.604L385.73 530.613L387.25 529.312ZM415.188 489.25L413.675 490.558L413.682 490.566L413.689 490.575L415.188 489.25ZM387.312 489.312L388.832 490.613L387.312 489.312ZM353.812 509.25H355.812C355.812 494.672 359.863 483.591 367.727 475.727L366.312 474.312L364.898 472.898C356.096 481.701 351.812 493.911 351.812 509.25H353.812ZM366.312 474.312L367.727 475.727C375.593 467.861 386.634 463.812 401.125 463.812V461.812V459.812C385.866 459.812 373.699 464.098 364.898 472.898L366.312 474.312ZM401.125 461.812V463.812C416.017 463.812 427.195 467.812 434.964 475.543L436.375 474.125L437.786 472.707C429.055 464.021 416.733 459.812 401.125 459.812V461.812ZM436.375 474.125L434.968 475.546C442.743 483.242 446.75 494.132 446.75 508.5H448.75H450.75C450.75 493.368 446.507 481.341 437.782 472.704L436.375 474.125ZM448.75 508.5H446.75C446.75 519 444.97 527.443 441.543 533.942L443.312 534.875L445.082 535.808C448.905 528.557 450.75 519.417 450.75 508.5H448.75ZM443.312 534.875L441.541 533.946C438.141 540.431 433.21 545.484 426.709 549.131L427.688 550.875L428.666 552.619C435.831 548.6 441.318 542.986 445.084 535.804L443.312 534.875ZM427.688 550.875L426.713 549.129C420.297 552.711 412.177 554.562 402.25 554.562V556.562V558.562C412.656 558.562 421.495 556.623 428.662 552.621L427.688 550.875ZM402.25 556.562V554.562C392.113 554.562 383.873 552.946 377.435 549.825L376.562 551.625L375.69 553.425C382.835 556.888 391.72 558.562 402.25 558.562V556.562ZM376.562 551.625L377.439 549.827C371.077 546.725 365.877 541.806 361.847 534.983L360.125 536L358.403 537.017C362.789 544.444 368.548 549.942 375.686 553.423L376.562 551.625ZM360.125 536L361.847 534.983C357.867 528.244 355.812 519.704 355.812 509.25H353.812H351.812C351.812 520.213 353.967 529.506 358.403 537.017L360.125 536ZM382.125 509.375H380.125C380.125 518.778 381.844 526.015 385.723 530.604L387.25 529.312L388.777 528.021C385.823 524.526 384.125 518.472 384.125 509.375H382.125ZM387.25 529.312L385.73 530.613C389.614 535.152 394.885 537.375 401.312 537.375V535.375V533.375C395.907 533.375 391.803 531.557 388.77 528.012L387.25 529.312ZM401.312 535.375V537.375C407.871 537.375 413.186 535.216 416.967 530.726L415.438 529.438L413.908 528.149C411.023 531.575 406.921 533.375 401.312 533.375V535.375ZM415.438 529.438L416.967 530.726C420.787 526.19 422.438 518.452 422.438 508.125H420.438H418.438C418.438 518.298 416.755 524.768 413.908 528.149L415.438 529.438ZM420.438 508.125H422.438C422.438 499.301 420.66 492.419 416.686 487.925L415.188 489.25L413.689 490.575C416.715 493.997 418.438 499.699 418.438 508.125H420.438ZM415.188 489.25L416.7 487.942C412.811 483.444 407.519 481.25 401.062 481.25V483.25V485.25C406.522 485.25 410.647 487.056 413.675 490.558L415.188 489.25ZM401.062 483.25V481.25C394.818 481.25 389.662 483.491 385.793 488.012L387.312 489.312L388.832 490.613C391.88 487.051 395.89 485.25 401.062 485.25V483.25ZM387.312 489.312L385.793 488.012C381.864 492.604 380.125 499.89 380.125 509.375H382.125H384.125C384.125 500.193 385.844 494.104 388.832 490.613L387.312 489.312ZM463.863 463.375V461.375H460.161L462.19 464.471L463.863 463.375ZM495.05 463.375L496.783 462.376L496.206 461.375H495.05V463.375ZM511.3 491.562L509.567 492.561L511.327 495.614L513.046 492.538L511.3 491.562ZM527.05 463.375V461.375H525.876L525.304 462.399L527.05 463.375ZM557.925 463.375L559.608 464.456L561.586 461.375H557.925V463.375ZM529.425 507.75L527.742 506.669L527.038 507.765L527.756 508.852L529.425 507.75ZM560.613 555V557H564.329L562.282 553.898L560.613 555ZM528.8 555L527.095 556.046L527.681 557H528.8V555ZM510.738 525.562L512.442 524.517L510.74 521.743L509.034 524.514L510.738 525.562ZM492.613 555V557H493.73L494.316 556.049L492.613 555ZM460.988 555L459.32 553.896L457.264 557H460.988V555ZM492.613 507.25L494.28 508.354L495.007 507.256L494.285 506.154L492.613 507.25ZM463.863 463.375V465.375H495.05V463.375V461.375H463.863V463.375ZM495.05 463.375L493.317 464.374L509.567 492.561L511.3 491.562L513.033 490.564L496.783 462.376L495.05 463.375ZM511.3 491.562L513.046 492.538L528.796 464.351L527.05 463.375L525.304 462.399L509.554 490.587L511.3 491.562ZM527.05 463.375V465.375H557.925V463.375V461.375H527.05V463.375ZM557.925 463.375L556.242 462.294L527.742 506.669L529.425 507.75L531.108 508.831L559.608 464.456L557.925 463.375ZM529.425 507.75L527.756 508.852L558.943 556.102L560.613 555L562.282 553.898L531.094 506.648L529.425 507.75ZM560.613 555V553H528.8V555V557H560.613V555ZM528.8 555L530.505 553.954L512.442 524.517L510.738 525.562L509.033 526.608L527.095 556.046L528.8 555ZM510.738 525.562L509.034 524.514L490.909 553.951L492.613 555L494.316 556.049L512.441 526.611L510.738 525.562ZM492.613 555V553H460.988V555V557H492.613V555ZM460.988 555L462.655 556.104L494.28 508.354L492.613 507.25L490.945 506.146L459.32 553.896L460.988 555ZM492.613 507.25L494.285 506.154L465.535 462.279L463.863 463.375L462.19 464.471L490.94 508.346L492.613 507.25ZM657.225 474.125L655.814 475.543L655.818 475.546L657.225 474.125ZM664.163 534.875L662.393 533.942L662.391 533.946L664.163 534.875ZM648.538 550.875L649.512 552.621L649.516 552.619L648.538 550.875ZM597.413 551.625L596.536 553.423L596.54 553.425L597.413 551.625ZM608.1 529.312L606.573 530.604L606.58 530.613L608.1 529.312ZM636.038 489.25L634.525 490.558L634.532 490.566L634.539 490.575L636.038 489.25ZM608.163 489.312L609.682 490.613L608.163 489.312ZM574.663 509.25H576.663C576.663 494.672 580.713 483.591 588.577 475.727L587.163 474.312L585.748 472.898C576.946 481.701 572.663 493.911 572.663 509.25H574.663ZM587.163 474.312L588.577 475.727C596.443 467.861 607.484 463.812 621.975 463.812V461.812V459.812C606.716 459.812 594.549 464.098 585.748 472.898L587.163 474.312ZM621.975 461.812V463.812C636.867 463.812 648.045 467.812 655.814 475.543L657.225 474.125L658.636 472.707C649.905 464.021 637.583 459.812 621.975 459.812V461.812ZM657.225 474.125L655.818 475.546C663.593 483.242 667.6 494.132 667.6 508.5H669.6H671.6C671.6 493.368 667.357 481.341 658.632 472.704L657.225 474.125ZM669.6 508.5H667.6C667.6 519 665.82 527.443 662.393 533.942L664.163 534.875L665.932 535.808C669.755 528.557 671.6 519.417 671.6 508.5H669.6ZM664.163 534.875L662.391 533.946C658.991 540.431 654.06 545.484 647.559 549.131L648.538 550.875L649.516 552.619C656.681 548.6 662.168 542.986 665.934 535.804L664.163 534.875ZM648.538 550.875L647.563 549.129C641.147 552.711 633.027 554.562 623.1 554.562V556.562V558.562C633.506 558.562 642.345 556.623 649.512 552.621L648.538 550.875ZM623.1 556.562V554.562C612.963 554.562 604.723 552.946 598.285 549.825L597.413 551.625L596.54 553.425C603.685 556.888 612.57 558.562 623.1 558.562V556.562ZM597.413 551.625L598.289 549.827C591.927 546.725 586.727 541.806 582.697 534.983L580.975 536L579.253 537.017C583.639 544.444 589.398 549.942 596.536 553.423L597.413 551.625ZM580.975 536L582.697 534.983C578.717 528.244 576.663 519.704 576.663 509.25H574.663H572.663C572.663 520.213 574.817 529.506 579.253 537.017L580.975 536ZM602.975 509.375H600.975C600.975 518.778 602.694 526.015 606.573 530.604L608.1 529.312L609.627 528.021C606.673 524.526 604.975 518.472 604.975 509.375H602.975ZM608.1 529.312L606.58 530.613C610.464 535.152 615.735 537.375 622.163 537.375V535.375V533.375C616.757 533.375 612.653 531.557 609.62 528.012L608.1 529.312ZM622.163 535.375V537.375C628.721 537.375 634.036 535.216 637.817 530.726L636.288 529.438L634.758 528.149C631.873 531.575 627.771 533.375 622.163 533.375V535.375ZM636.288 529.438L637.817 530.726C641.637 526.19 643.288 518.452 643.288 508.125H641.288H639.288C639.288 518.298 637.605 524.768 634.758 528.149L636.288 529.438ZM641.288 508.125H643.288C643.288 499.301 641.51 492.419 637.536 487.925L636.038 489.25L634.539 490.575C637.565 493.997 639.288 499.699 639.288 508.125H641.288ZM636.038 489.25L637.55 487.942C633.661 483.444 628.369 481.25 621.913 481.25V483.25V485.25C627.372 485.25 631.497 487.056 634.525 490.558L636.038 489.25ZM621.913 483.25V481.25C615.668 481.25 610.512 483.491 606.643 488.012L608.163 489.312L609.682 490.613C612.73 487.051 616.74 485.25 621.913 485.25V483.25ZM608.163 489.312L606.643 488.012C602.714 492.604 600.975 499.89 600.975 509.375H602.975H604.975C604.975 500.193 606.694 494.104 609.682 490.613L608.163 489.312Z" fill="#121AFF" mask="url(#path-3-inside-2_190_149)"/>
</g>
<g filter="url(#filter2_n_190_149)">
<mask id="path-5-inside-3_190_149" fill="white">
<path d="M353.812 269.25C353.812 254.292 357.979 242.646 366.312 234.312C374.646 225.979 386.25 221.812 401.125 221.812C416.375 221.812 428.125 225.917 436.375 234.125C444.625 242.292 448.75 253.75 448.75 268.5C448.75 279.208 446.938 288 443.312 294.875C439.729 301.708 434.521 307.042 427.688 310.875C420.896 314.667 412.417 316.562 402.25 316.562C391.917 316.562 383.354 314.917 376.562 311.625C369.812 308.333 364.333 303.125 360.125 296C355.917 288.875 353.812 279.958 353.812 269.25ZM382.125 269.375C382.125 278.625 383.833 285.271 387.25 289.312C390.708 293.354 395.396 295.375 401.312 295.375C407.396 295.375 412.104 293.396 415.438 289.438C418.771 285.479 420.438 278.375 420.438 268.125C420.438 259.5 418.688 253.208 415.188 249.25C411.729 245.25 407.021 243.25 401.062 243.25C395.354 243.25 390.771 245.271 387.312 249.312C383.854 253.354 382.125 260.042 382.125 269.375ZM574.663 269.25C574.663 254.292 578.829 242.646 587.163 234.312C595.496 225.979 607.1 221.812 621.975 221.812C637.225 221.812 648.975 225.917 657.225 234.125C665.475 242.292 669.6 253.75 669.6 268.5C669.6 279.208 667.788 288 664.163 294.875C660.579 301.708 655.371 307.042 648.538 310.875C641.746 314.667 633.267 316.562 623.1 316.562C612.767 316.562 604.204 314.917 597.413 311.625C590.663 308.333 585.183 303.125 580.975 296C576.767 288.875 574.663 279.958 574.663 269.25ZM602.975 269.375C602.975 278.625 604.683 285.271 608.1 289.312C611.558 293.354 616.246 295.375 622.163 295.375C628.246 295.375 632.954 293.396 636.288 289.438C639.621 285.479 641.288 278.375 641.288 268.125C641.288 259.5 639.538 253.208 636.038 249.25C632.579 245.25 627.871 243.25 621.913 243.25C616.204 243.25 611.621 245.271 608.163 249.312C604.704 253.354 602.975 260.042 602.975 269.375Z"/>
<path d="M463.863 223.375H495.05L511.3 251.562L527.05 223.375H557.925L529.425 267.75L560.613 315H528.8L510.738 285.562L492.613 315H460.988L492.613 267.25L463.863 223.375Z"/>
</mask>
<path d="M463.863 223.375H495.05L511.3 251.562L527.05 223.375H557.925L529.425 267.75L560.613 315H528.8L510.738 285.562L492.613 315H460.988L492.613 267.25L463.863 223.375Z" fill="#121AFF"/>
<path d="M436.375 234.125L434.964 235.543L434.968 235.546L436.375 234.125ZM443.312 294.875L441.543 293.942L441.541 293.946L443.312 294.875ZM427.688 310.875L428.662 312.621L428.666 312.619L427.688 310.875ZM376.562 311.625L375.686 313.423L375.69 313.425L376.562 311.625ZM387.25 289.312L385.723 290.604L385.73 290.613L387.25 289.312ZM415.188 249.25L413.675 250.558L413.682 250.566L413.689 250.575L415.188 249.25ZM387.312 249.312L388.832 250.613L387.312 249.312ZM353.812 269.25H355.812C355.812 254.672 359.863 243.591 367.727 235.727L366.312 234.312L364.898 232.898C356.096 241.701 351.812 253.911 351.812 269.25H353.812ZM366.312 234.312L367.727 235.727C375.593 227.861 386.634 223.812 401.125 223.812V221.812V219.812C385.866 219.812 373.699 224.098 364.898 232.898L366.312 234.312ZM401.125 221.812V223.812C416.017 223.812 427.195 227.812 434.964 235.543L436.375 234.125L437.786 232.707C429.055 224.021 416.733 219.812 401.125 219.812V221.812ZM436.375 234.125L434.968 235.546C442.743 243.242 446.75 254.132 446.75 268.5H448.75H450.75C450.75 253.368 446.507 241.341 437.782 232.704L436.375 234.125ZM448.75 268.5H446.75C446.75 279 444.97 287.443 441.543 293.942L443.312 294.875L445.082 295.808C448.905 288.557 450.75 279.417 450.75 268.5H448.75ZM443.312 294.875L441.541 293.946C438.141 300.431 433.21 305.484 426.709 309.131L427.688 310.875L428.666 312.619C435.831 308.6 441.318 302.986 445.084 295.804L443.312 294.875ZM427.688 310.875L426.713 309.129C420.297 312.711 412.177 314.562 402.25 314.562V316.562V318.562C412.656 318.562 421.495 316.623 428.662 312.621L427.688 310.875ZM402.25 316.562V314.562C392.113 314.562 383.873 312.946 377.435 309.825L376.562 311.625L375.69 313.425C382.835 316.888 391.72 318.562 402.25 318.562V316.562ZM376.562 311.625L377.439 309.827C371.077 306.725 365.877 301.806 361.847 294.983L360.125 296L358.403 297.017C362.789 304.444 368.548 309.942 375.686 313.423L376.562 311.625ZM360.125 296L361.847 294.983C357.867 288.244 355.812 279.704 355.812 269.25H353.812H351.812C351.812 280.213 353.967 289.506 358.403 297.017L360.125 296ZM382.125 269.375H380.125C380.125 278.778 381.844 286.015 385.723 290.604L387.25 289.312L388.777 288.021C385.823 284.526 384.125 278.472 384.125 269.375H382.125ZM387.25 289.312L385.73 290.613C389.614 295.152 394.885 297.375 401.312 297.375V295.375V293.375C395.907 293.375 391.803 291.557 388.77 288.012L387.25 289.312ZM401.312 295.375V297.375C407.871 297.375 413.186 295.216 416.967 290.726L415.438 289.438L413.908 288.149C411.023 291.575 406.921 293.375 401.312 293.375V295.375ZM415.438 289.438L416.967 290.726C420.787 286.19 422.438 278.452 422.438 268.125H420.438H418.438C418.438 278.298 416.755 284.768 413.908 288.149L415.438 289.438ZM420.438 268.125H422.438C422.438 259.301 420.66 252.419 416.686 247.925L415.188 249.25L413.689 250.575C416.715 253.997 418.438 259.699 418.438 268.125H420.438ZM415.188 249.25L416.7 247.942C412.811 243.444 407.519 241.25 401.062 241.25V243.25V245.25C406.522 245.25 410.647 247.056 413.675 250.558L415.188 249.25ZM401.062 243.25V241.25C394.818 241.25 389.662 243.491 385.793 248.012L387.312 249.312L388.832 250.613C391.88 247.051 395.89 245.25 401.062 245.25V243.25ZM387.312 249.312L385.793 248.012C381.864 252.604 380.125 259.89 380.125 269.375H382.125H384.125C384.125 260.193 385.844 254.104 388.832 250.613L387.312 249.312ZM463.863 223.375V221.375H460.161L462.19 224.471L463.863 223.375ZM495.05 223.375L496.783 222.376L496.206 221.375H495.05V223.375ZM511.3 251.562L509.567 252.561L511.327 255.614L513.046 252.538L511.3 251.562ZM527.05 223.375V221.375H525.876L525.304 222.399L527.05 223.375ZM557.925 223.375L559.608 224.456L561.586 221.375H557.925V223.375ZM529.425 267.75L527.742 266.669L527.038 267.765L527.756 268.852L529.425 267.75ZM560.613 315V317H564.329L562.282 313.898L560.613 315ZM528.8 315L527.095 316.046L527.681 317H528.8V315ZM510.738 285.562L512.442 284.517L510.74 281.743L509.034 284.514L510.738 285.562ZM492.613 315V317H493.73L494.316 316.049L492.613 315ZM460.988 315L459.32 313.896L457.264 317H460.988V315ZM492.613 267.25L494.28 268.354L495.007 267.256L494.285 266.154L492.613 267.25ZM463.863 223.375V225.375H495.05V223.375V221.375H463.863V223.375ZM495.05 223.375L493.317 224.374L509.567 252.561L511.3 251.562L513.033 250.564L496.783 222.376L495.05 223.375ZM511.3 251.562L513.046 252.538L528.796 224.351L527.05 223.375L525.304 222.399L509.554 250.587L511.3 251.562ZM527.05 223.375V225.375H557.925V223.375V221.375H527.05V223.375ZM557.925 223.375L556.242 222.294L527.742 266.669L529.425 267.75L531.108 268.831L559.608 224.456L557.925 223.375ZM529.425 267.75L527.756 268.852L558.943 316.102L560.613 315L562.282 313.898L531.094 266.648L529.425 267.75ZM560.613 315V313H528.8V315V317H560.613V315ZM528.8 315L530.505 313.954L512.442 284.517L510.738 285.562L509.033 286.608L527.095 316.046L528.8 315ZM510.738 285.562L509.034 284.514L490.909 313.951L492.613 315L494.316 316.049L512.441 286.611L510.738 285.562ZM492.613 315V313H460.988V315V317H492.613V315ZM460.988 315L462.655 316.104L494.28 268.354L492.613 267.25L490.945 266.146L459.32 313.896L460.988 315ZM492.613 267.25L494.285 266.154L465.535 222.279L463.863 223.375L462.19 224.471L490.94 268.346L492.613 267.25ZM657.225 234.125L655.814 235.543L655.818 235.546L657.225 234.125ZM664.163 294.875L662.393 293.942L662.391 293.946L664.163 294.875ZM648.538 310.875L649.512 312.621L649.516 312.619L648.538 310.875ZM597.413 311.625L596.536 313.423L596.54 313.425L597.413 311.625ZM608.1 289.312L606.573 290.604L606.58 290.613L608.1 289.312ZM636.038 249.25L634.525 250.558L634.532 250.566L634.539 250.575L636.038 249.25ZM608.163 249.312L609.682 250.613L608.163 249.312ZM574.663 269.25H576.663C576.663 254.672 580.713 243.591 588.577 235.727L587.163 234.312L585.748 232.898C576.946 241.701 572.663 253.911 572.663 269.25H574.663ZM587.163 234.312L588.577 235.727C596.443 227.861 607.484 223.812 621.975 223.812V221.812V219.812C606.716 219.812 594.549 224.098 585.748 232.898L587.163 234.312ZM621.975 221.812V223.812C636.867 223.812 648.045 227.812 655.814 235.543L657.225 234.125L658.636 232.707C649.905 224.021 637.583 219.812 621.975 219.812V221.812ZM657.225 234.125L655.818 235.546C663.593 243.242 667.6 254.132 667.6 268.5H669.6H671.6C671.6 253.368 667.357 241.341 658.632 232.704L657.225 234.125ZM669.6 268.5H667.6C667.6 279 665.82 287.443 662.393 293.942L664.163 294.875L665.932 295.808C669.755 288.557 671.6 279.417 671.6 268.5H669.6ZM664.163 294.875L662.391 293.946C658.991 300.431 654.06 305.484 647.559 309.131L648.538 310.875L649.516 312.619C656.681 308.6 662.168 302.986 665.934 295.804L664.163 294.875ZM648.538 310.875L647.563 309.129C641.147 312.711 633.027 314.562 623.1 314.562V316.562V318.562C633.506 318.562 642.345 316.623 649.512 312.621L648.538 310.875ZM623.1 316.562V314.562C612.963 314.562 604.723 312.946 598.285 309.825L597.413 311.625L596.54 313.425C603.685 316.888 612.57 318.562 623.1 318.562V316.562ZM597.413 311.625L598.289 309.827C591.927 306.725 586.727 301.806 582.697 294.983L580.975 296L579.253 297.017C583.639 304.444 589.398 309.942 596.536 313.423L597.413 311.625ZM580.975 296L582.697 294.983C578.717 288.244 576.663 279.704 576.663 269.25H574.663H572.663C572.663 280.213 574.817 289.506 579.253 297.017L580.975 296ZM602.975 269.375H600.975C600.975 278.778 602.694 286.015 606.573 290.604L608.1 289.312L609.627 288.021C606.673 284.526 604.975 278.472 604.975 269.375H602.975ZM608.1 289.312L606.58 290.613C610.464 295.152 615.735 297.375 622.163 297.375V295.375V293.375C616.757 293.375 612.653 291.557 609.62 288.012L608.1 289.312ZM622.163 295.375V297.375C628.721 297.375 634.036 295.216 637.817 290.726L636.288 289.438L634.758 288.149C631.873 291.575 627.771 293.375 622.163 293.375V295.375ZM636.288 289.438L637.817 290.726C641.637 286.19 643.288 278.452 643.288 268.125H641.288H639.288C639.288 278.298 637.605 284.768 634.758 288.149L636.288 289.438ZM641.288 268.125H643.288C643.288 259.301 641.51 252.419 637.536 247.925L636.038 249.25L634.539 250.575C637.565 253.997 639.288 259.699 639.288 268.125H641.288ZM636.038 249.25L637.55 247.942C633.661 243.444 628.369 241.25 621.913 241.25V243.25V245.25C627.372 245.25 631.497 247.056 634.525 250.558L636.038 249.25ZM621.913 243.25V241.25C615.668 241.25 610.512 243.491 606.643 248.012L608.163 249.312L609.682 250.613C612.73 247.051 616.74 245.25 621.913 245.25V243.25ZM608.163 249.312L606.643 248.012C602.714 252.604 600.975 259.89 600.975 269.375H602.975H604.975C604.975 260.193 606.694 254.104 609.682 250.613L608.163 249.312Z" fill="#121AFF" mask="url(#path-5-inside-3_190_149)"/>
</g>
<defs>
<filter id="filter0_n_190_149" x="353.812" y="341.812" width="315.787" height="94.75" filterUnits="userSpaceOnUse" color-interpolation-filters="sRGB">
<feFlood flood-opacity="0" result="BackgroundImageFix"/>
<feBlend mode="normal" in="SourceGraphic" in2="BackgroundImageFix" result="shape"/>
<feTurbulence type="fractalNoise" baseFrequency="2 2" stitchTiles="stitch" numOctaves="3" result="noise" seed="3978" />
<feColorMatrix in="noise" type="luminanceToAlpha" result="alphaNoise" />
<feComponentTransfer in="alphaNoise" result="coloredNoise1">
<feFuncA type="discrete" tableValues="1 1 1 1 1 1 1 1 1 1 1 1 1 1 1 1 1 1 1 1 1 1 1 1 1 1 1 1 1 1 1 1 1 1 1 1 1 1 1 1 1 1 1 1 1 1 1 1 1 1 1 0 0 0 0 0 0 0 0 0 0 0 0 0 0 0 0 0 0 0 0 0 0 0 0 0 0 0 0 0 0 0 0 0 0 0 0 0 0 0 0 0 0 0 0 0 0 0 0 0 "/>
</feComponentTransfer>
<feComposite operator="in" in2="shape" in="coloredNoise1" result="noise1Clipped" />
<feFlood flood-color="rgba(255, 255, 255, 0.25)" result="color1Flood" />
<feComposite operator="in" in2="noise1Clipped" in="color1Flood" result="color1" />
<feMerge result="effect1_noise_190_149">
<feMergeNode in="shape" />
<feMergeNode in="color1" />
</feMerge>
</filter>
<filter id="filter1_n_190_149" x="353.812" y="461.812" width="315.787" height="94.75" filterUnits="userSpaceOnUse" color-interpolation-filters="sRGB">
<feFlood flood-opacity="0" result="BackgroundImageFix"/>
<feBlend mode="normal" in="SourceGraphic" in2="BackgroundImageFix" result="shape"/>
<feTurbulence type="fractalNoise" baseFrequency="2 2" stitchTiles="stitch" numOctaves="3" result="noise" seed="3978" />
<feColorMatrix in="noise" type="luminanceToAlpha" result="alphaNoise" />
<feComponentTransfer in="alphaNoise" result="coloredNoise1">
<feFuncA type="discrete" tableValues="1 1 1 1 1 1 1 1 1 1 1 1 1 1 1 1 1 1 1 1 1 1 1 1 1 1 1 1 1 1 1 1 1 1 1 1 1 1 1 1 1 1 1 1 1 1 1 1 1 1 1 0 0 0 0 0 0 0 0 0 0 0 0 0 0 0 0 0 0 0 0 0 0 0 0 0 0 0 0 0 0 0 0 0 0 0 0 0 0 0 0 0 0 0 0 0 0 0 0 0 "/>
</feComponentTransfer>
<feComposite operator="in" in2="shape" in="coloredNoise1" result="noise1Clipped" />
<feFlood flood-color="rgba(255, 255, 255, 0.25)" result="color1Flood" />
<feComposite operator="in" in2="noise1Clipped" in="color1Flood" result="color1" />
<feMerge result="effect1_noise_190_149">
<feMergeNode in="shape" />
<feMergeNode in="color1" />
</feMerge>
</filter>
<filter id="filter2_n_190_149" x="353.812" y="221.812" width="315.787" height="94.75" filterUnits="userSpaceOnUse" color-interpolation-filters="sRGB">
<feFlood flood-opacity="0" result="BackgroundImageFix"/>
<feBlend mode="normal" in="SourceGraphic" in2="BackgroundImageFix" result="shape"/>
<feTurbulence type="fractalNoise" baseFrequency="2 2" stitchTiles="stitch" numOctaves="3" result="noise" seed="3978" />
<feColorMatrix in="noise" type="luminanceToAlpha" result="alphaNoise" />
<feComponentTransfer in="alphaNoise" result="coloredNoise1">
<feFuncA type="discrete" tableValues="1 1 1 1 1 1 1 1 1 1 1 1 1 1 1 1 1 1 1 1 1 1 1 1 1 1 1 1 1 1 1 1 1 1 1 1 1 1 1 1 1 1 1 1 1 1 1 1 1 1 1 0 0 0 0 0 0 0 0 0 0 0 0 0 0 0 0 0 0 0 0 0 0 0 0 0 0 0 0 0 0 0 0 0 0 0 0 0 0 0 0 0 0 0 0 0 0 0 0 0 "/>
</feComponentTransfer>
<feComposite operator="in" in2="shape" in="coloredNoise1" result="noise1Clipped" />
<feFlood flood-color="rgba(255, 255, 255, 0.25)" result="color1Flood" />
<feComposite operator="in" in2="noise1Clipped" in="color1Flood" result="color1" />
<feMerge result="effect1_noise_190_149">
<feMergeNode in="shape" />
<feMergeNode in="color1" />
</feMerge>
</filter>
</defs>
</svg>
