<svg width="1024" height="768" viewBox="0 0 1024 768" fill="none" xmlns="http://www.w3.org/2000/svg">
<rect width="1024" height="768" fill="#0055FF"/>
<path d="M524.859 327.234C524.859 340.26 518.247 349.859 507.531 354.086L522.237 377.854H498.069L485.188 356.486H452.129V377.854H431.609V297.868H494.308C512.433 297.868 524.859 309.408 524.859 327.234ZM452.129 315.122V339.232H488.608C494.764 339.232 504.339 339.232 504.339 327.234C504.339 315.122 494.764 315.122 488.608 315.122H452.129Z" fill="white"/>
<path d="M615.937 314.208H552.098V330.433H615.937V345.288H552.098V361.514H615.937V377.854H531.579V297.868H615.937V314.208Z" fill="white"/>
<path d="M707.928 297.868H730.956L689.917 377.854H661.874L620.835 297.868H643.862L675.895 362.656L707.928 297.868Z" fill="white"/>
<path d="M789.315 377.854L780.765 360.828H733L724.451 377.854H701.879L743.032 297.868H770.733L812 377.854H789.315ZM740.638 345.517H773.127L756.94 313.065L740.638 345.517Z" fill="white"/>
<path d="M524.903 427.788C524.903 440.814 518.291 450.413 507.576 454.64L522.281 478.408H498.114L485.232 457.04H452.173V478.408H431.654V398.422H494.352C512.478 398.422 524.903 409.962 524.903 427.788ZM452.173 415.676V439.786H488.652C494.808 439.786 504.384 439.786 504.384 427.788C504.384 415.676 494.808 415.676 488.652 415.676H452.173Z" fill="white"/>
<path d="M552.143 398.422V478.408H531.624V398.422H552.143Z" fill="white"/>
<path d="M645.594 415.676H581.755V436.015H638.754V453.384H581.755V478.408H561.236V398.422H645.594V415.676Z" fill="white"/>
<path d="M749.308 398.422V415.676H710.549V478.408H690.03V415.676H651.271V398.422H749.308Z" fill="white"/>
<path d="M212 299.01C212 298.379 212.51 297.868 213.14 297.868H390.975C391.604 297.868 392.115 298.379 392.115 299.01V477.265C392.115 477.896 391.604 478.408 390.975 478.408H213.14C212.51 478.408 212 477.896 212 477.265V299.01Z" fill="white"/>
<path d="M329.506 366.472V413.367L282.723 366.472H329.506Z" fill="#0055FF"/>
<path d="M329.506 413.367V460.261L282.723 413.366L329.506 413.367Z" fill="#0055FF"/>
<path d="M282.723 413.366V366.472L235.939 413.366H282.723Z" fill="#0055FF"/>
<path d="M235.939 413.366L235.939 460.261L282.723 413.366H235.939Z" fill="#0055FF"/>
<path d="M235.939 319.578V366.472L282.723 319.578H235.939Z" fill="#0055FF"/>
<path d="M329.506 319.578V366.472L282.723 319.578H329.506Z" fill="#0055FF"/>
<path d="M329.506 366.472V319.578L376.29 366.472H329.506Z" fill="#0055FF"/>
<path d="M329.506 366.472H376.29L329.506 413.367V366.472Z" fill="#0055FF"/>
<path d="M329.506 460.261V413.367L376.29 460.261L329.506 460.261Z" fill="#0055FF"/>
<path d="M377.295 497L784.049 271L804.687 305.954L377.295 497Z" fill="#0055FF"/>
<path d="M756.904 317.864L746.074 321.863L718.145 335.004L738.993 297.868H766.694L774.003 311.008L756.904 317.864ZM746.074 321.863L756.904 317.864L752.901 313.065L746.074 321.863Z" fill="white"/>
</svg>
