<svg width="565" height="365" viewBox="0 0 565 365" fill="none" xmlns="http://www.w3.org/2000/svg">
<g clip-path="url(#clip0_4_83)">
<path d="M565 0H0V365H565V0Z" fill="white"/>
<path d="M323.214 216.36C323.062 216.041 322.843 215.795 322.555 215.623C322.267 215.445 321.932 215.356 321.55 215.356C321.168 215.356 320.823 215.445 320.515 215.623C320.211 215.795 319.97 216.046 319.793 216.375C319.62 216.7 319.534 217.076 319.534 217.505C319.534 217.933 319.62 218.31 319.793 218.634C319.97 218.958 320.211 219.209 320.515 219.387C320.823 219.559 321.168 219.646 321.55 219.646C322.084 219.646 322.523 219.486 322.869 219.167C323.214 218.848 323.415 218.417 323.473 217.873H321.291V217.293H324.234V217.842C324.192 218.292 324.051 218.705 323.81 219.081C323.57 219.452 323.253 219.748 322.861 219.967C322.468 220.182 322.032 220.289 321.55 220.289C321.043 220.289 320.58 220.171 320.161 219.936C319.743 219.695 319.411 219.363 319.165 218.94C318.924 218.516 318.804 218.038 318.804 217.505C318.804 216.971 318.924 216.493 319.165 216.07C319.411 215.641 319.743 215.309 320.161 215.074C320.58 214.833 321.043 214.713 321.55 214.713C322.131 214.713 322.644 214.857 323.088 215.144C323.538 215.432 323.865 215.837 324.069 216.36H323.214ZM324.912 218.077C324.912 217.638 325.001 217.254 325.178 216.924C325.356 216.59 325.6 216.331 325.908 216.148C326.222 215.965 326.57 215.874 326.952 215.874C327.327 215.874 327.654 215.955 327.932 216.117C328.21 216.279 328.416 216.483 328.553 216.728V215.944H329.276V220.242H328.553V219.442C328.413 219.693 328.2 219.902 327.916 220.069C327.641 220.231 327.314 220.312 326.944 220.312C326.562 220.312 326.217 220.218 325.908 220.03C325.6 219.842 325.356 219.578 325.178 219.238C325.001 218.898 324.912 218.511 324.912 218.077ZM328.553 218.085C328.553 217.761 328.488 217.479 328.357 217.238C328.226 216.998 328.047 216.815 327.824 216.689C327.602 216.558 327.36 216.493 327.092 216.493C326.826 216.493 326.583 216.556 326.363 216.681C326.144 216.807 325.968 216.99 325.838 217.23C325.707 217.471 325.641 217.753 325.641 218.077C325.641 218.407 325.707 218.694 325.838 218.94C325.968 219.18 326.144 219.366 326.363 219.497C326.583 219.622 326.826 219.685 327.092 219.685C327.36 219.685 327.602 219.622 327.824 219.497C328.047 219.366 328.226 219.18 328.357 218.94C328.488 218.694 328.553 218.409 328.553 218.085ZM335.652 215.866C335.989 215.866 336.286 215.936 336.548 216.077C336.809 216.213 337.015 216.42 337.166 216.697C337.319 216.974 337.395 217.311 337.395 217.709V220.242H336.688V217.811C336.688 217.382 336.58 217.055 336.368 216.83C336.159 216.6 335.871 216.485 335.511 216.485C335.138 216.485 334.844 216.605 334.625 216.846C334.406 217.081 334.295 217.424 334.295 217.873V220.242H333.589V217.811C333.589 217.382 333.481 217.055 333.268 216.83C333.059 216.6 332.771 216.485 332.412 216.485C332.039 216.485 331.745 216.605 331.525 216.846C331.306 217.081 331.195 217.424 331.195 217.873V220.242H330.482V215.944H331.195V216.564C331.336 216.339 331.525 216.166 331.761 216.046C332 215.926 332.264 215.866 332.552 215.866C332.915 215.866 333.232 215.947 333.51 216.109C333.788 216.271 333.994 216.509 334.131 216.822C334.249 216.519 334.449 216.284 334.727 216.117C335.004 215.949 335.312 215.866 335.652 215.866ZM342.489 217.928C342.489 218.064 342.482 218.208 342.466 218.36H339.029C339.056 218.783 339.199 219.115 339.461 219.356C339.729 219.591 340.05 219.708 340.426 219.708C340.736 219.708 340.991 219.638 341.194 219.497C341.403 219.35 341.55 219.157 341.635 218.916H342.404C342.289 219.329 342.057 219.667 341.714 219.928C341.367 220.184 340.939 220.312 340.426 220.312C340.017 220.312 339.651 220.221 339.327 220.038C339.01 219.855 338.758 219.596 338.575 219.261C338.392 218.922 338.3 218.53 338.3 218.085C338.3 217.641 338.389 217.251 338.565 216.917C338.745 216.582 338.993 216.326 339.311 216.148C339.638 215.965 340.007 215.874 340.426 215.874C340.834 215.874 341.194 215.962 341.508 216.14C341.822 216.318 342.064 216.564 342.23 216.877C342.404 217.186 342.489 217.536 342.489 217.928ZM341.753 217.779C341.753 217.507 341.691 217.275 341.573 217.081C341.452 216.883 341.285 216.734 341.076 216.634C340.874 216.53 340.645 216.477 340.396 216.477C340.033 216.477 339.726 216.592 339.468 216.822C339.219 217.053 339.075 217.371 339.036 217.779H341.753ZM346.239 215.356V217.183H348.23V217.771H346.239V219.654H348.466V220.242H345.523V214.768H348.466V215.356H346.239ZM351.791 220.242L350.771 218.642L349.79 220.242H349.044L350.434 218.109L349.044 215.944H349.852L350.872 217.536L351.847 215.944H352.592L351.212 218.069L352.599 220.242H351.791ZM354.018 216.736C354.158 216.49 354.367 216.287 354.645 216.124C354.927 215.957 355.254 215.874 355.626 215.874C356.009 215.874 356.352 215.965 356.663 216.148C356.977 216.331 357.222 216.59 357.398 216.924C357.578 217.254 357.667 217.638 357.667 218.077C357.667 218.511 357.578 218.898 357.398 219.238C357.222 219.578 356.977 219.842 356.663 220.03C356.352 220.218 356.009 220.312 355.626 220.312C355.26 220.312 354.936 220.231 354.652 220.069C354.374 219.902 354.165 219.695 354.018 219.45V222.281H353.302V215.944H354.018V216.736ZM356.937 218.077C356.937 217.753 356.872 217.471 356.741 217.23C356.61 216.99 356.431 216.807 356.205 216.681C355.986 216.556 355.744 216.493 355.476 216.493C355.214 216.493 354.972 216.558 354.747 216.689C354.528 216.815 354.348 217 354.214 217.246C354.083 217.486 354.018 217.766 354.018 218.085C354.018 218.409 354.083 218.694 354.214 218.94C354.348 219.18 354.528 219.366 354.747 219.497C354.972 219.622 355.214 219.685 355.476 219.685C355.744 219.685 355.986 219.622 356.205 219.497C356.431 219.366 356.61 219.18 356.741 218.94C356.872 218.694 356.937 218.407 356.937 218.077ZM362.529 217.928C362.529 218.064 362.522 218.208 362.506 218.36H359.069C359.095 218.783 359.239 219.115 359.501 219.356C359.766 219.591 360.089 219.708 360.465 219.708C360.773 219.708 361.031 219.638 361.234 219.497C361.443 219.35 361.59 219.157 361.675 218.916H362.444C362.329 219.329 362.097 219.667 361.754 219.928C361.407 220.184 360.979 220.312 360.465 220.312C360.057 220.312 359.69 220.221 359.367 220.038C359.046 219.855 358.798 219.596 358.615 219.261C358.432 218.922 358.34 218.53 358.34 218.085C358.34 217.641 358.428 217.251 358.605 216.917C358.785 216.582 359.033 216.326 359.35 216.148C359.674 215.965 360.047 215.874 360.465 215.874C360.874 215.874 361.234 215.962 361.548 216.14C361.862 216.318 362.103 216.564 362.27 216.877C362.444 217.186 362.529 217.536 362.529 217.928ZM361.793 217.779C361.793 217.507 361.731 217.275 361.61 217.081C361.492 216.883 361.325 216.734 361.116 216.634C360.913 216.53 360.684 216.477 360.433 216.477C360.073 216.477 359.766 216.592 359.507 216.822C359.256 217.053 359.112 217.371 359.076 217.779H361.793ZM364.186 216.642C364.311 216.396 364.49 216.206 364.719 216.07C364.955 215.934 365.239 215.866 365.576 215.866V216.603H365.386C364.585 216.603 364.186 217.037 364.186 217.905V220.242H363.47V215.944H364.186V216.642ZM366.769 215.246C366.632 215.246 366.518 215.199 366.423 215.105C366.328 215.011 366.282 214.896 366.282 214.76C366.282 214.624 366.328 214.509 366.423 214.415C366.518 214.321 366.632 214.274 366.769 214.274C366.9 214.274 367.008 214.321 367.096 214.415C367.191 214.509 367.24 214.624 367.24 214.76C367.24 214.896 367.191 215.011 367.096 215.105C367.008 215.199 366.9 215.246 366.769 215.246ZM367.113 215.944V220.242H366.4V215.944H367.113ZM372.253 217.928C372.253 218.064 372.246 218.208 372.23 218.36H368.793C368.819 218.783 368.963 219.115 369.225 219.356C369.493 219.591 369.813 219.708 370.189 219.708C370.5 219.708 370.755 219.638 370.958 219.497C371.167 219.35 371.314 219.157 371.399 218.916H372.168C372.053 219.329 371.821 219.667 371.478 219.928C371.131 220.184 370.703 220.312 370.189 220.312C369.781 220.312 369.414 220.221 369.091 220.038C368.774 219.855 368.522 219.596 368.339 219.261C368.156 218.922 368.064 218.53 368.064 218.085C368.064 217.641 368.152 217.251 368.329 216.917C368.509 216.582 368.757 216.326 369.074 216.148C369.401 215.965 369.771 215.874 370.189 215.874C370.598 215.874 370.958 215.962 371.272 216.14C371.586 216.318 371.828 216.564 371.994 216.877C372.168 217.186 372.253 217.536 372.253 217.928ZM371.517 217.779C371.517 217.507 371.455 217.275 371.337 217.081C371.216 216.883 371.049 216.734 370.84 216.634C370.637 216.53 370.408 216.477 370.16 216.477C369.797 216.477 369.49 216.592 369.231 216.822C368.983 217.053 368.839 217.371 368.8 217.779H371.517ZM375.293 215.866C375.817 215.866 376.238 216.025 376.562 216.344C376.889 216.658 377.049 217.113 377.049 217.709V220.242H376.343V217.811C376.343 217.382 376.235 217.055 376.023 216.83C375.807 216.6 375.516 216.485 375.143 216.485C374.767 216.485 374.466 216.603 374.241 216.838C374.021 217.073 373.91 217.416 373.91 217.866V220.242H373.198V215.944H373.91V216.556C374.051 216.336 374.244 216.166 374.482 216.046C374.731 215.926 374.999 215.866 375.293 215.866ZM377.948 218.085C377.948 217.641 378.037 217.254 378.216 216.924C378.393 216.59 378.638 216.331 378.952 216.148C379.273 215.965 379.635 215.874 380.044 215.874C380.574 215.874 381.006 216.002 381.346 216.258C381.692 216.514 381.921 216.87 382.029 217.324H381.261C381.189 217.063 381.045 216.856 380.829 216.705C380.62 216.553 380.358 216.477 380.044 216.477C379.635 216.477 379.305 216.619 379.057 216.901C378.805 217.178 378.677 217.573 378.677 218.085C378.677 218.603 378.805 219.003 379.057 219.285C379.305 219.567 379.635 219.708 380.044 219.708C380.358 219.708 380.62 219.635 380.829 219.489C381.038 219.342 381.182 219.133 381.261 218.861H382.029C381.914 219.301 381.686 219.654 381.339 219.92C380.992 220.182 380.561 220.312 380.044 220.312C379.635 220.312 379.273 220.221 378.952 220.038C378.638 219.855 378.393 219.596 378.216 219.261C378.037 218.927 377.948 218.535 377.948 218.085ZM386.907 217.928C386.907 218.064 386.897 218.208 386.881 218.36H383.445C383.471 218.783 383.615 219.115 383.876 219.356C384.144 219.591 384.465 219.708 384.841 219.708C385.151 219.708 385.406 219.638 385.612 219.497C385.822 219.35 385.966 219.157 386.051 218.916H386.819C386.705 219.329 386.476 219.667 386.129 219.928C385.782 220.184 385.354 220.312 384.841 220.312C384.435 220.312 384.069 220.221 383.742 220.038C383.425 219.855 383.173 219.596 382.99 219.261C382.807 218.922 382.716 218.53 382.716 218.085C382.716 217.641 382.804 217.251 382.984 216.917C383.16 216.582 383.409 216.326 383.729 216.148C384.053 215.965 384.422 215.874 384.841 215.874C385.25 215.874 385.612 215.962 385.926 216.14C386.24 216.318 386.479 216.564 386.646 216.877C386.819 217.186 386.907 217.536 386.907 217.928ZM386.168 217.779C386.168 217.507 386.109 217.275 385.988 217.081C385.868 216.883 385.704 216.734 385.495 216.634C385.289 216.53 385.063 216.477 384.811 216.477C384.448 216.477 384.141 216.592 383.886 216.822C383.634 217.053 383.49 217.371 383.454 217.779H386.168ZM391.645 214.776C392.24 214.776 392.757 214.888 393.188 215.113C393.63 215.332 393.963 215.649 394.195 216.062C394.431 216.475 394.548 216.961 394.548 217.52C394.548 218.08 394.431 218.566 394.195 218.979C393.963 219.387 393.63 219.701 393.188 219.92C392.757 220.135 392.24 220.242 391.645 220.242H389.942V214.776H391.645ZM391.645 219.654C392.351 219.654 392.888 219.468 393.26 219.097C393.633 218.72 393.816 218.195 393.816 217.52C393.816 216.841 393.63 216.31 393.254 215.928C392.881 215.547 392.345 215.356 391.645 215.356H390.654V219.654H391.645ZM399.414 217.928C399.414 218.064 399.404 218.208 399.388 218.36H395.951C395.977 218.783 396.121 219.115 396.383 219.356C396.651 219.591 396.971 219.708 397.347 219.708C397.658 219.708 397.913 219.638 398.119 219.497C398.328 219.35 398.472 219.157 398.557 218.916H399.326C399.211 219.329 398.982 219.667 398.636 219.928C398.289 220.184 397.861 220.312 397.347 220.312C396.942 220.312 396.576 220.221 396.249 220.038C395.932 219.855 395.68 219.596 395.497 219.261C395.314 218.922 395.222 218.53 395.222 218.085C395.222 217.641 395.31 217.251 395.49 216.917C395.667 216.582 395.915 216.326 396.236 216.148C396.559 215.965 396.929 215.874 397.347 215.874C397.756 215.874 398.119 215.962 398.433 216.14C398.747 216.318 398.985 216.564 399.152 216.877C399.326 217.186 399.414 217.536 399.414 217.928ZM398.675 217.779C398.675 217.507 398.616 217.275 398.495 217.081C398.374 216.883 398.211 216.734 398.001 216.634C397.795 216.53 397.57 216.477 397.318 216.477C396.955 216.477 396.648 216.592 396.393 216.822C396.141 217.053 395.997 217.371 395.961 217.779H398.675ZM401.879 220.312C401.549 220.312 401.251 220.257 400.99 220.148C400.728 220.033 400.522 219.876 400.372 219.677C400.218 219.473 400.136 219.241 400.12 218.979H400.859C400.879 219.193 400.977 219.369 401.157 219.505C401.34 219.641 401.578 219.708 401.869 219.708C402.141 219.708 402.356 219.648 402.513 219.528C402.67 219.408 402.749 219.256 402.749 219.073C402.749 218.885 402.664 218.746 402.497 218.658C402.33 218.563 402.072 218.472 401.722 218.383C401.402 218.299 401.14 218.216 400.937 218.132C400.738 218.043 400.565 217.915 400.418 217.748C400.277 217.575 400.205 217.351 400.205 217.073C400.205 216.854 400.27 216.653 400.401 216.47C400.532 216.287 400.718 216.143 400.96 216.038C401.199 215.928 401.474 215.874 401.784 215.874C402.258 215.874 402.644 215.994 402.938 216.234C403.229 216.475 403.386 216.804 403.409 217.222H402.693C402.677 216.998 402.585 216.817 402.419 216.681C402.258 216.545 402.036 216.477 401.761 216.477C401.503 216.477 401.3 216.532 401.147 216.642C400.996 216.752 400.921 216.896 400.921 217.073C400.921 217.215 400.964 217.332 401.055 217.426C401.147 217.515 401.264 217.588 401.398 217.646C401.539 217.698 401.735 217.758 401.98 217.826C402.288 217.91 402.54 217.994 402.732 218.077C402.925 218.156 403.092 218.276 403.226 218.438C403.37 218.6 403.442 218.812 403.449 219.073C403.449 219.309 403.383 219.52 403.252 219.708C403.122 219.897 402.935 220.046 402.693 220.156C402.458 220.26 402.186 220.312 401.879 220.312ZM404.825 215.246C404.688 215.246 404.573 215.199 404.479 215.105C404.384 215.011 404.338 214.896 404.338 214.76C404.338 214.624 404.384 214.509 404.479 214.415C404.573 214.321 404.688 214.274 404.825 214.274C404.956 214.274 405.064 214.321 405.152 214.415C405.247 214.509 405.296 214.624 405.296 214.76C405.296 214.896 405.247 215.011 405.152 215.105C405.064 215.199 404.956 215.246 404.825 215.246ZM405.168 215.944V220.242H404.456V215.944H405.168ZM408.16 215.874C408.53 215.874 408.857 215.955 409.131 216.117C409.416 216.279 409.625 216.483 409.759 216.728V215.944H410.482V220.336C410.482 220.728 410.4 221.076 410.23 221.379C410.063 221.687 409.824 221.928 409.511 222.1C409.2 222.273 408.84 222.359 408.425 222.359C407.863 222.359 407.392 222.226 407.013 221.959C406.637 221.693 406.414 221.329 406.345 220.869H407.052C407.13 221.131 407.294 221.34 407.539 221.497C407.784 221.659 408.082 221.74 408.425 221.74C408.817 221.74 409.138 221.617 409.383 221.371C409.635 221.125 409.759 220.78 409.759 220.336V219.434C409.618 219.685 409.409 219.894 409.131 220.061C408.857 220.229 408.53 220.312 408.16 220.312C407.778 220.312 407.431 220.218 407.117 220.03C406.807 219.842 406.565 219.578 406.385 219.238C406.208 218.898 406.12 218.511 406.12 218.077C406.12 217.638 406.208 217.254 406.385 216.924C406.565 216.59 406.807 216.331 407.117 216.148C407.431 215.965 407.778 215.874 408.16 215.874ZM409.759 218.085C409.759 217.761 409.694 217.479 409.563 217.238C409.432 216.998 409.255 216.815 409.03 216.689C408.811 216.558 408.569 216.493 408.301 216.493C408.033 216.493 407.791 216.556 407.572 216.681C407.353 216.807 407.176 216.99 407.045 217.23C406.914 217.471 406.849 217.753 406.849 218.077C406.849 218.407 406.914 218.694 407.045 218.94C407.176 219.18 407.353 219.366 407.572 219.497C407.791 219.622 408.033 219.685 408.301 219.685C408.569 219.685 408.811 219.622 409.03 219.497C409.255 219.366 409.432 219.18 409.563 218.94C409.694 218.694 409.759 218.409 409.759 218.085ZM413.784 215.866C414.307 215.866 414.732 216.025 415.056 216.344C415.38 216.658 415.543 217.113 415.543 217.709V220.242H414.837V217.811C414.837 217.382 414.729 217.055 414.513 216.83C414.301 216.6 414.006 216.485 413.637 216.485C413.258 216.485 412.957 216.603 412.734 216.838C412.512 217.073 412.404 217.416 412.404 217.866V220.242H411.688V215.944H412.404V216.556C412.545 216.336 412.734 216.166 412.976 216.046C413.222 215.926 413.493 215.866 413.784 215.866ZM420.634 217.928C420.634 218.064 420.624 218.208 420.608 218.36H417.171C417.198 218.783 417.341 219.115 417.603 219.356C417.871 219.591 418.192 219.708 418.568 219.708C418.878 219.708 419.133 219.638 419.339 219.497C419.548 219.35 419.692 219.157 419.777 218.916H420.546C420.431 219.329 420.202 219.667 419.856 219.928C419.509 220.184 419.081 220.312 418.568 220.312C418.162 220.312 417.796 220.221 417.469 220.038C417.152 219.855 416.9 219.596 416.717 219.261C416.534 218.922 416.442 218.53 416.442 218.085C416.442 217.641 416.531 217.251 416.71 216.917C416.887 216.582 417.135 216.326 417.456 216.148C417.78 215.965 418.149 215.874 418.568 215.874C418.976 215.874 419.339 215.962 419.653 216.14C419.967 216.318 420.206 216.564 420.372 216.877C420.546 217.186 420.634 217.536 420.634 217.928ZM419.895 217.779C419.895 217.507 419.836 217.275 419.715 217.081C419.594 216.883 419.431 216.734 419.221 216.634C419.015 216.53 418.79 216.477 418.538 216.477C418.175 216.477 417.868 216.592 417.613 216.822C417.361 217.053 417.217 217.371 417.181 217.779H419.895ZM422.288 216.642C422.416 216.396 422.593 216.206 422.821 216.07C423.057 215.934 423.345 215.866 423.678 215.866V216.603H423.488C422.691 216.603 422.288 217.037 422.288 217.905V220.242H421.576V215.944H422.288V216.642Z" fill="black"/>
<path d="M145.501 217.791H310.619" stroke="black"/>
<path d="M154.263 163.123C155.44 161.467 157.053 160.094 159.102 159.005C161.195 157.872 163.571 157.306 166.23 157.306C169.326 157.306 172.116 158.069 174.601 159.594C177.129 161.119 179.113 163.297 180.552 166.129C182.034 168.917 182.775 172.163 182.775 175.867C182.775 179.57 182.034 182.859 180.552 185.735C179.113 188.567 177.129 190.767 174.601 192.336C172.116 193.904 169.326 194.688 166.23 194.688C163.571 194.688 161.217 194.144 159.168 193.055C157.163 191.965 155.528 190.593 154.263 188.937V211.354H145.108V157.894H154.263V163.123ZM173.424 175.867C173.424 173.688 172.966 171.815 172.05 170.246C171.178 168.634 170.001 167.414 168.519 166.586C167.08 165.759 165.511 165.345 163.811 165.345C162.154 165.345 160.585 165.78 159.102 166.652C157.664 167.479 156.487 168.7 155.571 170.312C154.699 171.923 154.263 173.819 154.263 175.997C154.263 178.176 154.699 180.071 155.571 181.683C156.487 183.295 157.664 184.537 159.102 185.408C160.585 186.236 162.154 186.65 163.811 186.65C165.511 186.65 167.08 186.214 168.519 185.343C170.001 184.471 171.178 183.23 172.05 181.618C172.966 180.006 173.424 178.089 173.424 175.867ZM205.515 194.688C202.027 194.688 198.888 193.926 196.098 192.401C193.308 190.833 191.106 188.632 189.493 185.8C187.924 182.968 187.139 179.701 187.139 175.997C187.139 172.294 187.946 169.026 189.558 166.194C191.215 163.362 193.46 161.184 196.294 159.659C199.128 158.09 202.288 157.306 205.776 157.306C209.264 157.306 212.424 158.09 215.258 159.659C218.092 161.184 220.315 163.362 221.928 166.194C223.585 169.026 224.413 172.294 224.413 175.997C224.413 179.701 223.563 182.968 221.863 185.8C220.206 188.632 217.939 190.833 215.062 192.401C212.228 193.926 209.046 194.688 205.515 194.688ZM205.515 186.715C207.171 186.715 208.719 186.323 210.157 185.539C211.64 184.711 212.817 183.491 213.689 181.879C214.561 180.267 214.997 178.307 214.997 175.997C214.997 172.555 214.081 169.919 212.25 168.09C210.463 166.216 208.261 165.279 205.645 165.279C203.03 165.279 200.828 166.216 199.041 168.09C197.297 169.919 196.425 172.555 196.425 175.997C196.425 179.439 197.275 182.097 198.975 183.97C200.719 185.8 202.899 186.715 205.515 186.715ZM240.284 163.515C241.461 161.598 242.987 160.094 244.861 159.005C246.78 157.916 248.959 157.372 251.401 157.372V166.979H248.981C246.104 166.979 243.924 167.654 242.442 169.004C241.003 170.355 240.284 172.708 240.284 176.063V194.1H231.129V157.894H240.284V163.515ZM268.226 165.41V182.925C268.226 184.145 268.51 185.038 269.076 185.604C269.687 186.127 270.69 186.389 272.084 186.389H276.335V194.1H270.58C262.864 194.1 259.006 190.353 259.006 182.859V165.41H254.69V157.894H259.006V148.941H268.226V157.894H276.335V165.41H268.226ZM297.699 162.273H289.394V194.1H284.816V162.273H279.846V158.417H284.816V155.934C284.816 152.056 285.797 149.202 287.759 147.372C289.765 145.543 292.99 144.628 297.437 144.628V148.549C294.473 148.549 292.38 149.115 291.159 150.248C289.982 151.381 289.394 153.276 289.394 155.934V158.417H297.699V162.273ZM320.534 194.623C317.177 194.623 314.147 193.882 311.444 192.401C308.785 190.876 306.67 188.741 305.101 185.996C303.575 183.208 302.812 179.962 302.812 176.259C302.812 172.555 303.597 169.331 305.166 166.586C306.736 163.798 308.872 161.663 311.575 160.182C314.278 158.657 317.308 157.894 320.665 157.894C324.022 157.894 327.053 158.657 329.753 160.182C332.5 161.663 334.638 163.798 336.162 166.586C337.731 169.331 338.516 172.555 338.516 176.259C338.516 179.919 337.731 183.143 336.162 185.931C334.592 188.719 332.435 190.876 329.688 192.401C326.942 193.882 323.891 194.623 320.534 194.623ZM320.534 190.637C322.888 190.637 325.068 190.114 327.072 189.068C329.08 187.979 330.692 186.367 331.911 184.232C333.177 182.053 333.808 179.396 333.808 176.259C333.808 173.122 333.2 170.486 331.977 168.351C330.757 166.172 329.145 164.56 327.138 163.515C325.133 162.426 322.953 161.881 320.599 161.881C318.245 161.881 316.066 162.426 314.06 163.515C312.055 164.56 310.442 166.172 309.221 168.351C308.044 170.486 307.455 173.122 307.455 176.259C307.455 179.396 308.044 182.053 309.221 184.232C310.442 186.367 312.033 187.979 313.995 189.068C316 190.114 318.18 190.637 320.534 190.637ZM351.438 145.739V194.1H346.86V145.739H351.438ZM364.095 151.686C363.179 151.686 362.395 151.359 361.741 150.705C361.087 150.052 360.76 149.246 360.76 148.287C360.76 147.329 361.087 146.545 361.741 145.935C362.395 145.281 363.179 144.954 364.095 144.954C365.01 144.954 365.795 145.281 366.449 145.935C367.103 146.545 367.43 147.329 367.43 148.287C367.43 149.246 367.103 150.052 366.449 150.705C365.795 151.359 365.01 151.686 364.095 151.686ZM366.384 158.417V194.1H361.806V158.417H366.384ZM392.378 194.623C389.02 194.623 385.992 193.882 383.288 192.401C380.63 190.876 378.514 188.741 376.945 185.996C375.418 183.208 374.656 179.962 374.656 176.259C374.656 172.555 375.441 169.331 377.01 166.586C378.579 163.798 380.715 161.663 383.419 160.182C386.123 158.657 389.15 157.894 392.508 157.894C395.866 157.894 398.894 158.657 401.598 160.182C404.345 161.663 406.48 163.798 408.007 166.586C409.576 169.331 410.361 172.555 410.361 176.259C410.361 179.919 409.576 183.143 408.007 185.931C406.437 188.719 404.279 190.876 401.533 192.401C398.786 193.882 395.735 194.623 392.378 194.623ZM392.378 190.637C394.732 190.637 396.913 190.114 398.917 189.068C400.921 187.979 402.536 186.367 403.756 184.232C405.021 182.053 405.652 179.396 405.652 176.259C405.652 173.122 405.041 170.486 403.821 168.351C402.602 166.172 400.987 164.56 398.982 163.515C396.978 162.426 394.797 161.881 392.443 161.881C390.089 161.881 387.908 162.426 385.904 163.515C383.899 164.56 382.284 166.172 381.064 168.351C379.887 170.486 379.299 173.122 379.299 176.259C379.299 179.396 379.887 182.053 381.064 184.232C382.284 186.367 383.876 187.979 385.838 189.068C387.842 190.114 390.023 190.637 392.378 190.637Z" fill="black"/>
<path d="M420.807 188.382C422.162 188.382 423.259 189.479 423.259 190.833C423.259 192.186 422.162 193.283 420.807 193.283C419.453 193.283 418.355 192.186 418.355 190.833C418.355 189.479 419.453 188.382 420.807 188.382Z" stroke="black" stroke-width="5"/>
<mask id="mask0_4_83" style="mask-type:luminance" maskUnits="userSpaceOnUse" x="136" y="23" width="289" height="190">
<path d="M424 23.9569V212.489H136.664V23.9569H424Z" fill="white" stroke="white" stroke-width="0.5"/>
</mask>
<g mask="url(#mask0_4_83)">
<path d="M149.993 14.0996C152.18 14.7234 153.856 16.4902 155.048 18.3964C156.24 20.3026 157.055 22.4299 158.235 24.3591C159.514 26.4787 161.193 28.338 163.18 29.8377C164.384 30.7483 165.745 31.5346 167.252 31.7361C168.759 31.9375 170.431 31.4339 171.293 30.1865C172.473 28.5359 171.847 26.3118 171.631 24.3203C170.915 17.7416 175.738 10.9923 182.285 9.43091" stroke="white" stroke-width="0.5" stroke-linecap="round" stroke-linejoin="round"/>
<path d="M142.651 28.346C144.101 27.938 145.624 27.8445 147.114 28.0719C148.604 28.2993 150.026 28.8424 151.283 29.6633C152.529 30.502 153.576 31.5971 154.351 32.8725C155.126 34.1482 155.611 35.5742 155.772 37.0521C155.965 38.9003 155.843 41.186 157.475 42.1274C159.694 43.4101 162.44 40.6399 164.923 41.2867C166.815 41.7789 167.598 43.9331 168.239 45.754C168.881 47.5752 170.124 49.6633 172.083 49.5819C174.148 49.4968 175.195 47.0131 175.124 44.9752C175.053 42.9373 174.404 40.8257 175.152 38.9273C176.222 36.1882 179.873 34.8242 180.353 31.93C180.699 29.8648 179.259 27.9549 178.83 25.9053C178.177 22.8055 179.971 19.5899 182.489 17.6526C185.007 15.7154 188.158 14.7119 191.227 13.7782" stroke="white" stroke-width="0.5" stroke-linecap="round" stroke-linejoin="round"/>
<path d="M144.438 53.8555C147.333 51.9917 150.28 50.1009 153.6 49.1519C156.921 48.2025 160.729 48.3226 163.566 50.2716C165.71 51.7477 167.051 54.0725 168.826 55.9322C170.6 57.7918 173.271 59.3379 175.734 58.4969C177.929 57.7493 179.137 55.3431 179.354 53.0726C179.57 50.8025 179.035 48.5126 178.901 46.2266C178.767 43.9405 179.122 41.4416 180.762 39.8222C182.576 38.0207 185.381 37.7995 187.875 37.207C190.369 36.6141 193.135 35.0604 193.249 32.5342C193.324 30.6243 191.825 29.0475 191.192 27.2342C190.102 24.0842 191.817 20.5196 194.453 18.4274C197.089 16.3352 200.449 15.4053 203.71 14.522" stroke="white" stroke-width="0.5" stroke-linecap="round" stroke-linejoin="round"/>
<path d="M144.269 64.8358C147.703 64.4136 150.257 61.6589 152.889 59.4465C155.52 57.2342 159.297 55.4016 162.331 57.0677C164.105 58.0441 165.085 59.9695 166.469 61.4263C167.547 62.5501 168.889 63.3963 170.376 63.8902C171.864 64.3841 173.452 64.5105 175.001 64.2589C176.549 64.0072 178.011 63.3849 179.259 62.4463C180.507 61.508 181.501 60.2824 182.155 58.8772C183.729 55.5102 183.178 51.5155 184.496 48.0478C186.168 43.6428 191.027 40.6438 195.783 41.101C197.254 41.2443 198.694 41.6783 200.174 41.6901C201.653 41.7015 203.274 41.1668 203.978 39.8844C204.737 38.5052 204.187 36.785 203.317 35.4484C202.447 34.1117 201.279 32.9917 200.669 31.5429C199.273 28.2223 201.425 24.2393 204.659 22.5229C207.893 20.8067 211.784 20.9732 215.344 21.7481C218.904 22.5229 222.308 23.9063 225.903 24.5106C234.822 26.0179 245.15 22.7323 247.042 12.9841" stroke="white" stroke-width="0.5" stroke-linecap="round" stroke-linejoin="round"/>
<path d="M142.891 82.4798C145 84.2775 148.34 83.929 150.709 82.4798C153.077 81.031 154.722 78.6944 156.409 76.5014C158.097 74.3085 159.993 72.1079 162.586 71.0772C169.05 68.5472 177.162 74.2313 182.993 70.4961C187.254 67.784 187.411 61.8444 189.114 57.1255C190.472 53.3751 194.067 49.698 197.99 50.6668C200.508 51.2905 202.16 53.5918 204.234 55.1378C206.307 56.6839 209.903 57.1332 211.028 54.8277C212.554 51.6895 207.487 48.6677 208.038 45.2346C208.459 42.6893 211.823 41.2907 211.996 38.7181C212.157 36.2808 209.293 34.301 209.694 31.8911C210.088 29.6362 213.066 28.7916 215.312 29.369C217.559 29.9463 219.518 31.3719 221.796 31.8021C226.359 32.6584 231.112 29.3184 235.534 30.7171C238.803 31.7554 241.86 35.2618 244.937 33.7663C247.624 32.4608 247.384 28.5667 249.135 26.1723C251.168 23.3788 255.237 23.2861 258.608 22.3872C264.993 20.6823 270.017 14.8823 270.741 8.40417" stroke="white" stroke-width="0.5" stroke-linecap="round" stroke-linejoin="round"/>
<path d="M140.684 99.0976C144.697 101.779 150.366 99.7909 153.836 96.4513C157.306 93.1113 159.494 88.7022 162.81 85.2152C166.127 81.7281 171.442 79.2448 175.793 81.3408C178.594 82.6969 180.813 85.8198 183.917 85.5021C186.581 85.2231 188.245 82.4023 188.607 79.8027C188.969 77.2027 188.524 74.4906 189.122 71.9221C190.177 67.385 194.815 63.9367 199.532 64.1731C203.529 64.3745 207.007 66.8388 210.784 68.1136C214.561 69.3883 219.773 68.8224 221.19 65.1339C222.236 62.4218 220.631 59.3958 218.727 57.1644C216.823 54.9327 214.494 52.8404 213.738 50.0197C212.511 45.4129 216.39 40.5546 221.087 39.4232C225.785 38.2917 230.777 40.132 234.668 42.9642C236.773 44.5141 238.677 46.335 240.998 47.5284C243.32 48.7217 246.27 49.179 248.505 47.8347C253.265 44.9789 251.145 37.2846 254.568 32.9527C256.818 30.1049 260.89 29.4656 264.553 29.4268C268.215 29.3884 272.063 29.7719 275.372 28.2296C280.722 25.7345 282.666 19.3418 284.027 13.6735" stroke="white" stroke-width="0.5" stroke-linecap="round" stroke-linejoin="round"/>
<path d="M142.785 112.577C146.196 114.735 150.653 111.774 152.935 108.477C155.217 105.18 157.125 101.069 160.989 99.7908C163.113 99.0819 165.529 99.3841 167.539 98.4039C171.111 96.6526 172.799 91.1934 176.776 91.5149C181.144 91.8638 182.391 99.0896 186.773 99.1671C189.098 99.2097 190.892 96.9779 191.369 94.7348C191.844 92.4913 191.404 90.1707 191.42 87.877C191.42 84.754 192.364 81.5615 194.441 79.2021C196.518 76.8423 199.831 75.4479 202.939 76.0715C206.177 76.7222 209.068 79.4035 212.322 78.7837C215.108 78.2721 216.937 75.5019 219.636 74.6456C222.815 73.6304 226.1 75.4942 229.192 76.7416C232.284 77.9893 236.6 78.2915 238.241 75.4091C239.779 72.697 237.721 69.4616 235.762 67.0478L229.042 58.772C227.862 57.327 226.631 55.6726 226.824 53.8323C227.13 50.9496 230.891 49.5703 233.716 50.376C236.541 51.1821 238.697 53.3709 241.03 55.1378C243.363 56.9047 246.412 58.3421 249.178 57.3425C253.273 55.8584 253.788 50.5349 254.686 46.3235C255.642 41.7517 258.714 36.8387 263.447 36.6372C267.322 36.4628 270.462 39.458 273.625 41.6742C276.194 43.4642 279.526 44.6265 282.583 43.4912C285.215 42.5111 288.004 39.981 287.646 36.9705C287.462 35.4207 286.466 34.084 285.892 32.6272C284.401 28.9387 285.589 24.6034 287.989 21.4146C290.389 18.2259 293.847 15.9903 297.313 13.9485" stroke="white" stroke-width="0.5" stroke-linecap="round" stroke-linejoin="round"/>
<path d="M142.195 124.157C146.204 125.479 150.622 123.425 153.714 120.581C156.807 117.737 159.08 114.126 162.169 111.275C165.257 108.423 169.644 106.362 173.68 107.664C177.717 108.965 180.373 113.398 184.594 114.126C188.017 114.727 191.491 112.542 193.218 109.57C194.945 106.598 195.224 103.014 195.016 99.5973C194.87 97.2725 194.524 94.9051 195.016 92.6232C195.508 90.3409 197.022 88.0705 199.343 87.5319C205.087 86.1952 208.703 95.6686 214.561 94.9826C219.927 94.351 220.741 86.2188 225.655 83.9985C228.437 82.7473 231.651 83.7663 234.645 84.3861C237.639 85.006 241.372 84.8433 242.958 82.2707C243.942 80.6745 243.745 78.6636 243.517 76.8153C243.288 74.9671 243.092 72.941 244.071 71.36C245.051 69.7793 247.738 69.1438 248.792 70.6899C249.418 71.6081 249.221 72.8285 249.485 73.9018C250.177 76.7029 254.123 77.7761 256.645 76.2924C259.167 74.8082 260.268 71.7165 260.221 68.8302C260.174 65.9437 259.194 63.1734 258.459 60.3838C257.723 57.5942 257.243 54.5955 258.175 51.8602C259.108 49.1245 261.858 46.8232 264.753 47.2105C267.063 47.5476 268.644 49.2913 270.47 50.5311C272.39 51.8328 274.577 52.0111 276.918 52.081C281.861 52.1893 286.708 50.7246 290.739 47.9041C293.328 46.0715 295.637 43.4255 295.798 40.2908C295.959 37.1564 293.902 34.2159 293.524 31.0503C293.056 27.1099 295.314 23.2393 298.403 20.6939C301.491 18.1483 305.323 16.6761 309.084 15.2697" stroke="white" stroke-width="0.5" stroke-linecap="round" stroke-linejoin="round"/>
<path d="M141.617 134.033C146.814 136.102 153.337 134.231 156.59 129.737C158.585 126.989 159.388 123.518 161.516 120.872C165.517 115.905 174.137 115.575 178.516 120.225C180.341 122.162 181.415 124.7 183.237 126.622C185.058 128.543 188.276 129.721 190.42 128.133C192.565 126.544 192.388 123.251 194.001 121.159C195.614 119.066 198.537 118.621 201.082 117.85C203.628 117.079 206.409 115.211 206.153 112.6C205.823 109.159 200.563 107.811 200.217 104.371C199.957 101.786 202.864 99.8258 205.496 99.8334C208.129 99.8413 210.556 101.131 213.035 102.015C215.513 102.898 218.491 103.32 220.612 101.779C223.759 99.5042 223.204 94.3783 226.12 91.8209C230.184 88.2449 237.367 92.3363 241.856 89.2677C243.43 88.1986 244.315 86.4473 245.551 85.0292C246.786 83.6112 248.781 82.4528 250.527 83.181C254.068 84.661 252.451 91.5807 256.208 92.3983C258.652 92.9292 260.414 89.8917 260.249 87.4312C260.084 84.9711 258.927 82.5535 259.375 80.128C260.347 74.8664 268.274 72.1931 267.665 66.8813C267.334 64.0066 264.439 61.12 266.012 58.6789C267.519 56.3544 271.154 57.4779 273.586 58.8533C276.871 60.7092 280.553 59.756 284.247 58.9426C287.942 58.1289 291.431 56.6178 294.87 55.0679C298.017 53.6773 301.452 52.0187 302.829 48.8923C304.355 45.4053 302.829 41.4572 301.448 37.9196C300.067 34.3824 298.965 30.1436 301.145 27.0248C302.683 24.8201 305.492 23.8323 308.187 23.5066C310.882 23.1812 313.632 23.3827 316.303 22.914C317.991 22.6195 319.632 22.0616 321.339 21.8989C323.046 21.7361 324.911 22.0346 326.139 23.2124C327.968 24.9751 327.752 27.9586 329.07 30.1204C330.852 33.0457 335.648 33.5143 337.977 30.9922C339.063 29.83 339.594 28.2296 340.699 27.075C342.863 24.8124 347.133 25.0914 348.962 27.6177C350.087 29.1672 350.642 31.492 352.536 31.8793C353.952 32.1506 355.327 30.9611 355.715 29.5898C356.106 28.2182 355.743 26.7614 355.279 25.4167C354.815 24.0725 354.236 22.7278 354.181 21.306C354.067 18.2801 356.768 15.4208 359.843 15.3123" stroke="white" stroke-width="0.5" stroke-linecap="round" stroke-linejoin="round"/>
<path d="M136.455 152.925C137.328 149.438 140.739 147.152 144.162 145.951C147.585 144.75 151.283 144.243 154.533 142.631C161.319 139.26 167.122 125.331 176.269 127.823C179.578 128.722 181.289 132.185 183.032 135.095C184.775 138.005 187.828 141.007 191.125 140.07C194.166 139.21 195.287 135.599 195.704 132.511C196.121 129.423 196.574 125.858 199.245 124.189C201.716 122.639 204.926 123.476 207.778 124.142C210.63 124.808 214.12 125.053 215.993 122.833C218.597 119.733 215.898 114.495 218.353 111.291C219.86 109.318 222.681 108.966 224.88 107.803C228.075 106.106 229.877 102.732 231.887 99.7561C233.897 96.7806 236.769 93.8089 240.401 93.7974C244.728 93.7974 247.734 97.8113 250.161 101.325C252.589 104.839 256.106 108.66 260.359 107.939C263.345 107.436 265.159 104.839 266.012 102.182C266.988 99.121 268.18 95.9592 267.362 92.6892C266.524 89.3302 264.049 86.2768 264.403 82.8365C264.903 78.0204 270.47 75.4751 272.838 71.2131C273.759 69.5663 274.179 67.6717 275.175 66.0679C276.17 64.464 278.083 63.1387 279.896 63.6773C281.226 64.0646 282.099 65.3161 282.701 66.5483C283.303 67.7804 283.779 69.1209 284.763 70.0896C287.477 72.763 291.112 68.5398 293.866 67.6911C297.014 66.7147 300.413 67.6911 303.647 67.1719C312.463 65.7657 309.588 48.5748 307.766 42.8716C306.814 39.8919 305.449 36.7963 306.192 33.7627C306.515 32.4745 307.208 31.3046 308.187 30.3933C309.167 29.4817 310.392 28.867 311.716 28.6219C313.041 28.3769 314.409 28.5122 315.657 29.0113C316.906 29.5107 317.982 30.3532 318.758 31.4379C320.076 33.2785 320.407 35.63 321.445 37.637C322.113 38.9325 323.063 40.0664 324.228 40.9573C325.393 41.8482 326.744 42.4739 328.183 42.7899C329.623 43.1059 331.116 43.1038 332.555 42.7844C333.994 42.4649 335.342 41.8357 336.505 40.942C338.126 39.6985 339.314 37.9973 340.834 36.6337C342.351 35.2697 344.429 34.2275 346.413 34.7467C349.066 35.4441 350.489 38.621 353.166 39.2139C355.649 39.7642 358.074 37.7495 359.029 35.4285C359.985 33.1079 359.916 30.5235 360.21 28.0363C360.501 25.5488 361.388 22.891 363.539 21.5504C365.686 20.2098 368.56 20.5856 371.081 20.0006C375.525 18.97 378.818 14.4097 378.354 9.927" stroke="white" stroke-width="0.5" stroke-linecap="round" stroke-linejoin="round"/>
<path d="M146.082 182.565C148.049 183.669 150.626 182.084 151.409 180.004C152.191 177.923 151.727 175.626 151.35 173.441C150.309 167.402 149.979 161.266 150.366 155.153C150.496 153.073 150.803 150.806 152.333 149.361C154.773 147.056 158.919 148.036 161.889 146.443C165.993 144.247 166.933 137.714 171.528 136.881C175.462 136.172 178.382 140.264 180.03 143.836C181.679 147.408 184.031 151.654 188.012 151.666C190.401 151.666 192.43 150.062 194.244 148.532C196.861 146.327 199.638 143.855 200.252 140.519C200.645 138.373 200.417 135.552 202.447 134.688C204.414 133.855 206.381 135.851 207.4 137.675C208.419 139.5 209.702 141.751 211.834 141.763C214.352 141.763 215.572 138.663 215.497 136.188C215.422 133.712 214.848 130.938 216.382 128.973C218.381 126.412 222.952 126.672 224.495 123.824C225.848 121.325 224.015 117.769 225.891 115.622C227.634 113.623 231.127 114.56 233.339 113.069C235.156 111.845 235.534 109.423 236.148 107.339C236.761 105.254 238.323 102.945 240.511 103.193C243.957 103.58 243.524 108.942 245.963 111.372C248.654 114.053 252.022 112.371 255.264 113.015C259.985 113.952 262.038 120.155 264.21 123.82C264.997 125.122 265.973 126.571 267.491 126.726C269.187 126.897 270.56 125.32 271.138 123.743C272.189 120.88 274.05 117.567 274.132 114.495C274.254 110.078 270.34 106.11 271.484 101.709C271.878 100.233 272.602 98.8689 273.058 97.4159C274.848 91.7438 270.753 85.9012 273.487 80.6126C274.482 78.6751 276.607 77.1488 278.771 77.5129C281.403 77.9587 283.098 80.9224 285.758 81.155C288.669 81.4108 290.605 78.4197 292.312 76.0831C294.354 73.2896 296.459 72.7667 299.653 72.9837C303.114 73.2651 306.564 72.3406 309.402 70.3723C311.224 69.0481 312.709 67.3248 313.739 65.3385C314.768 63.3521 315.315 61.1571 315.335 58.9271C315.335 56.215 314.588 53.3479 315.847 50.9497C316.567 49.5818 317.936 48.2106 317.389 46.769C316.929 45.5524 315.32 45.1226 314.686 43.9835C313.726 42.271 315.831 40.1088 317.802 40.349C319.773 40.5892 321.233 42.2866 322.13 44.0261C323.027 45.7656 323.573 47.7184 324.809 49.2489C326.044 50.779 328.306 51.7866 330.041 50.8334C331.945 49.7874 332.28 46.986 334.211 45.9827C336.332 44.8786 339.07 46.5987 341.294 45.6999C343.178 44.9249 344.023 42.5461 345.963 41.9301C348.567 41.1046 350.728 43.8904 353.083 45.2659C356.702 47.3737 362.056 45.5486 363.601 41.6743C364.449 39.5433 364.224 37.1721 364.332 34.886C364.439 32.6003 365.042 30.0935 366.953 28.7917C369.994 26.7227 374.607 28.7917 377.655 26.7189C379.227 25.6494 380.21 23.569 382.105 23.3056C384.626 22.9605 386.742 26.1842 389.187 25.5179C391.341 24.9288 392.12 21.6433 394.354 21.6084C396.713 21.5619 397.461 25.0683 399.687 25.8045C401.592 26.432 403.525 24.6422 404.131 22.7591C404.737 20.8762 404.574 18.8149 405.166 16.9281C405.755 15.0412 407.642 13.2203 409.568 13.8014" stroke="white" stroke-width="0.5" stroke-linecap="round" stroke-linejoin="round"/>
<path d="M143.305 190.488C148.643 190.162 154.875 188.9 157.106 184.115C158.467 181.193 157.869 177.761 156.83 174.715C155.792 171.67 154.324 168.714 153.982 165.521C153.64 162.329 154.737 158.687 157.625 157.187C160.379 155.761 164.073 156.575 166.489 154.645C168.326 153.177 168.948 150.434 171.068 149.403C172.795 148.559 174.94 149.214 176.458 150.38C177.977 151.546 179.07 153.154 180.361 154.56C182.584 156.974 185.574 158.849 188.866 159.14C192.16 159.43 195.712 157.877 197.176 154.956C198.1 153.107 198.273 150.729 199.977 149.531C202.573 147.718 205.913 150.159 208.907 151.217C214.565 153.208 221.536 148.861 222.122 142.972C222.551 138.644 220.25 133.565 223.192 130.326C224.337 129.07 226.033 128.458 227.375 127.412C229.483 125.769 230.557 123.193 232.123 121.042C233.689 118.892 236.333 117.001 238.894 117.799C242.584 118.962 243.111 124.561 246.762 125.854C249.032 126.66 251.515 125.397 253.927 125.494C257.558 125.645 260.292 128.776 262.078 131.895C263.864 135.014 265.316 138.532 268.278 140.601C271.241 142.67 276.379 142.174 277.41 138.741C278.515 135.072 274.286 131.767 274.2 127.955C274.125 124.665 277.028 122.174 279.573 120.047C282.119 117.919 284.774 114.979 284.011 111.779C283.547 109.841 282.072 108.915 280.77 107.571C279.331 106.054 278.166 104.308 277.323 102.406C276.536 100.612 276.21 98.555 276.8 96.6877C277.752 93.6693 280.77 91.829 283.555 90.2598C286.096 88.8303 289.283 87.6525 291.565 85.9552C293.744 84.3358 294.712 81.5579 297.254 80.2987C300.555 78.6637 304.445 80.4033 307.876 81.7282C311.307 83.0534 315.945 83.6384 318.078 80.6628C320.954 76.6566 316.284 70.2948 319.372 66.4436C321.831 63.3674 327.083 64.6459 330.317 62.3637C334.102 59.6942 334.043 52.9606 338.512 51.6703C342.839 50.4226 348.248 56.8661 352.037 53.7819C353.218 52.8093 354.112 51.3837 355.58 50.849C357.36 50.1903 359.348 51.1124 361.242 50.9265C363.41 50.7133 365.177 49.0589 366.229 47.1799C368.12 43.7586 367.635 36.3082 373.159 36.436C374.126 36.436 375.092 36.7655 376.041 36.591C377.28 36.3702 378.219 35.3782 378.939 34.3631C379.66 33.348 380.28 32.2245 381.301 31.4727C383.397 29.8997 386.621 32.0231 388.598 33.0922C392.823 35.4014 398.063 40.1244 399.334 44.8668C399.729 46.343 399.847 47.9275 400.609 49.2603C401.374 50.5932 403.113 51.5852 404.484 50.8604C405.959 50.0858 406.011 48.0749 406.725 46.5988C407.397 45.2039 408.713 44.2352 409.668 43.011C410.375 42.0772 410.87 41.0088 411.13 39.8746C411.39 38.7404 411.407 37.565 411.175 36.4242C410.68 33.8401 408.522 31.9919 408.107 29.4079C407.449 25.2466 411.597 22.1081 415.099 19.7293C418.6 17.3504 422.323 13.3481 420.546 9.54724" stroke="white" stroke-width="0.5" stroke-linecap="round" stroke-linejoin="round"/>
<path d="M142.498 201.925C143.482 203.355 145.795 203.231 147.18 202.17C148.565 201.108 149.285 199.458 150.075 197.908C150.866 196.358 151.893 194.777 153.538 194.177C155.182 193.576 157.224 194.049 158.597 192.975C160.367 191.596 159.777 188.714 161.083 186.9C163.22 183.925 168.657 185.676 171.112 182.952C172.882 180.984 172.02 177.846 170.573 175.634C169.125 173.421 167.134 171.372 166.764 168.78C166.613 167.7 166.759 166.6 167.188 165.595C167.617 164.59 168.312 163.718 169.202 163.069C170.091 162.42 171.141 162.019 172.242 161.908C173.343 161.797 174.454 161.98 175.459 162.437C176.981 163.134 178.311 164.467 179.991 164.464C181.282 164.464 182.422 163.654 183.677 163.348C187.694 162.367 191.333 166.618 195.48 166.42C198.683 166.265 201.039 163.561 203.262 161.286C205.485 159.012 208.675 156.823 211.657 157.981C213.625 158.756 214.738 160.694 216.099 162.243C217.46 163.793 219.691 165.165 221.552 164.215C223.669 163.138 223.519 160.128 222.854 157.877C222.189 155.626 221.375 152.933 222.929 151.155C224.231 149.663 226.836 149.399 227.548 147.559C228.26 145.719 226.403 143.375 227.418 141.612C228.146 140.337 229.924 140.159 231.108 139.287C234.35 136.877 232.186 130.318 235.951 128.826C237.749 128.113 239.779 129.214 241.066 130.639C242.352 132.065 243.308 133.801 244.843 134.963C247.227 136.761 251.047 137.102 253.911 137.861C255.334 138.171 256.709 138.668 257.999 139.337C259.257 140.066 260.359 141.189 260.69 142.584C260.969 143.747 260.741 144.99 261.228 146.071C262.059 147.908 264.431 148.338 266.406 148.853C268.994 149.528 271.407 150.735 273.487 152.394C275.545 154.037 277.449 155.742 280.313 155.494C284.247 155.145 287.851 150.388 286.797 146.513C286.128 144.065 283.728 141.782 284.283 139.097C284.602 137.548 285.88 136.42 286.994 135.297C288.107 134.173 289.185 132.732 288.961 131.178C288.638 129.078 286.112 127.935 285.487 125.901C284.81 123.693 286.565 121.581 287.729 119.582C288.75 117.796 289.354 115.809 289.497 113.765C289.64 111.721 289.318 109.671 288.555 107.765C287.58 105.378 285.857 103.619 285.365 101.093C284.873 98.5667 285.719 95.595 288.016 94.3746C290.554 93.0224 294.071 94.1033 296.278 92.2783C298.041 90.8256 298.383 87.9159 300.512 87.0517C303.265 85.9358 305.878 89.2564 308.84 89.3765C311.657 89.489 314.242 86.6644 316.921 87.5362C318.215 87.9467 319.089 89.1207 320.226 89.8607C321.018 90.374 321.935 90.6709 322.881 90.7211C323.829 90.7713 324.772 90.5726 325.616 90.1459C326.459 89.7191 327.173 89.0795 327.683 88.2921C328.193 87.5047 328.481 86.5979 328.519 85.6648C328.613 83.3787 327.229 81.3291 326.351 79.2099C325.474 77.0906 325.281 74.2505 327.138 72.8944C328.826 71.674 331.304 72.3133 333.142 71.3449C334.593 70.5699 335.353 68.9349 335.715 67.3501C336.077 65.7656 336.163 64.1074 336.742 62.5845C337.32 61.062 338.583 59.6284 340.228 59.4851C341.533 59.3688 342.766 60.078 343.812 60.8605C346.918 63.185 349.26 64.1461 351.577 60.6629C353.658 57.5361 356.955 55.285 360.865 55.2695C363.462 55.2695 366.551 56.0098 368.29 54.1072C369.36 52.945 369.419 51.2286 369.641 49.6788C369.859 48.1289 370.517 46.3662 372.044 45.9166C373.568 45.4673 375.234 46.56 376.74 46.0754C378.822 45.4015 378.87 42.5887 379.861 40.6512C380.38 39.6454 381.225 38.8383 382.261 38.3561C383.296 37.874 384.467 37.7446 385.585 37.9879C386.704 38.2312 387.712 38.8338 388.446 39.7008C389.18 40.5678 389.599 41.6504 389.641 42.7784C389.696 44.3283 389.18 46.1879 390.409 47.1293C391.196 47.7298 392.307 47.5903 393.249 47.9043C394.714 48.3809 395.587 49.9075 395.885 51.3913C396.183 52.8751 396.044 54.4288 396.241 55.9399C396.428 57.4472 396.969 58.8908 397.821 60.1555C398.673 61.4205 399.812 62.4713 401.152 63.2238C403.854 64.6612 407.403 64.5452 409.876 62.7434C412.345 60.9419 413.478 57.4666 412.328 54.6614C411.604 52.8945 410.063 51.0618 410.877 49.334C411.836 47.3038 415.206 47.5052 416.332 45.5604C417.118 44.2002 416.418 42.507 415.829 41.0465C415.244 39.5859 414.874 37.6837 416.075 36.645C417.014 35.8316 418.828 35.5873 418.773 34.3555C418.745 33.7356 418.191 33.2898 417.758 32.8364C416.993 31.9794 416.546 30.8902 416.494 29.7494C416.442 28.6087 416.789 27.4845 417.474 26.5639C418.205 25.6795 419.223 25.0676 420.356 24.8295C421.488 24.5914 422.669 24.7412 423.705 25.2542C426.115 26.5327 427.559 29.7796 430.295 29.7526C433.253 29.7252 434.506 25.9827 436.986 24.4097C438.673 23.3364 440.893 23.3634 442.79 23.9988C444.692 24.6343 446.361 25.7889 447.985 26.9511L446.877 26.8079" stroke="white" stroke-width="0.5" stroke-linecap="round" stroke-linejoin="round"/>
<path d="M143.851 207.78C146.578 209.07 149.882 207.505 151.96 205.335C154.037 203.165 155.43 200.41 157.641 198.361C161.532 194.785 167.354 194.014 172.626 194.703C174.31 194.924 176.002 195.273 177.697 195.13C179.393 194.986 181.144 194.235 181.978 192.774C182.765 191.437 182.599 189.752 182.068 188.311C181.537 186.869 180.656 185.571 179.964 184.196C177.862 180.035 177.906 174.25 181.671 171.468C185.145 168.888 190.082 169.891 194.17 171.36C198.258 172.828 202.648 174.668 206.807 173.406C208.943 172.759 210.847 171.313 213.078 171.154C217.323 170.848 220.848 175.25 225.081 174.839C228.362 174.521 230.695 171.251 231.045 168.024C231.525 163.623 229.102 159.582 229.53 155.141C229.901 151.016 231.837 147.18 234.952 144.397C235.863 143.534 236.974 142.904 238.19 142.561C238.8 142.394 239.444 142.38 240.062 142.518C240.68 142.657 241.253 142.944 241.731 143.355C242.211 143.816 242.517 144.425 242.973 144.905C245.078 147.203 248.922 146.455 251.676 146.726C255.122 147.086 258.364 148.826 259.902 152.011C261.378 155.068 261.449 159.237 264.49 160.814C267.531 162.391 271.512 160.128 274.593 161.612C275.879 162.232 276.78 163.41 277.874 164.324C279.57 165.734 281.718 165.734 283.626 164.711C284.956 163.991 285.813 162.642 287.056 161.786C288.96 160.473 291.459 160.496 293.744 160.128C296.412 159.705 299.091 158.609 300.763 156.517C302.435 154.425 302.817 151.213 301.133 149.128C300.197 147.966 298.772 147.292 297.521 146.47C296.27 145.649 295.039 144.502 294.886 143.022C294.594 140.159 298.186 138.497 299.351 135.858C300.456 133.359 299.182 130.477 297.635 128.214C294.85 124.153 292.234 119.492 292.521 114.417C292.655 111.957 293.804 109.403 295.999 108.218C297.179 107.586 298.753 107.187 299.087 105.912C299.367 104.84 298.556 103.824 298.17 102.782C297.474 100.88 298.3 98.6442 299.847 97.3075C301.393 95.9708 303.517 95.4399 305.571 95.4361C307.624 95.4323 309.67 96.2418 311.7 96.211C313.966 96.1799 316.201 96.3775 318.471 96.5596C321.909 96.8347 325.501 96.8891 328.668 95.533C331.836 94.1769 334.463 91.0658 334.196 87.6756C334.003 85.1805 332.351 82.5729 333.535 80.3606C334.511 78.5318 336.919 78.0358 338.496 76.6759C340.352 75.0759 340.896 72.4139 342.555 70.6242C343.971 69.0743 346.098 68.3264 348.176 68.125C350.25 67.9235 352.373 68.2257 354.468 68.532C356.117 68.7722 357.71 68.532 358.856 67.35C359.999 66.1684 360.532 64.5372 361.239 63.0534C361.949 61.5696 362.991 60.0699 364.588 59.6013C367.23 58.8264 370.067 61.1976 372.695 60.3763C376.273 59.2566 376.238 53.4717 379.729 52.1157C381.606 51.3874 383.798 52.3482 385.149 53.8244C386.496 55.3006 387.237 57.2069 388.11 59.0008C389.765 62.4093 391.975 65.5274 394.655 68.2298C396.605 70.1902 399.324 72.0384 401.973 71.2015C403.94 70.5737 405.36 68.5552 407.431 68.3032C409.665 68.036 411.514 69.9268 412.841 71.7165C414.167 73.5066 415.656 75.5563 417.893 75.8197C420.127 76.083 422.24 74.2698 422.811 72.1042C423.379 69.9382 422.704 67.6525 421.585 65.7191C420.706 64.1925 419.5 62.5187 420.051 60.8487C420.602 59.1791 422.551 58.4543 423.23 56.893C424.016 55.068 422.79 53.0768 421.977 51.2556C421.076 49.2371 419.802 45.7344 421.267 43.7239C421.987 42.7357 423.31 42.236 423.843 41.1395C424.529 39.7371 423.622 38.0865 423.736 36.529C423.795 35.8676 424.034 35.2345 424.429 34.6949C424.82 34.1554 425.353 33.7289 425.97 33.4604C426.593 33.206 427.268 33.1115 427.937 33.1852C428.609 33.2589 429.246 33.4991 429.797 33.8826C430.801 34.5876 431.417 35.7035 432.318 36.5366C433.658 37.7123 435.417 38.3194 437.208 38.2259C439.002 38.1138 440.737 37.568 442.261 36.6373C443.729 35.781 445.062 34.7001 446.617 33.9951C448.169 33.2897 450.087 33.0727 451.528 33.9716" stroke="white" stroke-width="0.5" stroke-linecap="round" stroke-linejoin="round"/>
<path d="M157.621 213.529C159.454 214.076 161.28 212.46 161.976 210.709C162.673 208.958 162.692 206.993 163.412 205.246C164.797 201.898 168.526 199.988 172.177 199.547C175.829 199.105 179.491 199.849 183.138 200.287C186.47 200.674 190.774 200.256 191.793 197.113C192.628 194.599 190.731 192.104 189.252 189.899C187.772 187.695 186.762 184.382 188.827 182.693C192.143 179.981 197.703 185.649 201.133 183.08C202.888 181.759 203.1 178.745 205.233 178.14C206.283 177.842 207.385 178.303 208.38 178.752L214.974 181.732C218.294 183.235 221.713 184.762 225.36 184.983C228.838 185.192 232.91 183.611 233.669 180.263C234.098 178.361 233.35 176.424 232.925 174.521C232.5 172.619 232.532 170.326 234.07 169.097C235.979 167.571 239.653 168.09 240.282 165.753C240.57 164.7 239.975 163.638 239.61 162.612C238.327 158.993 240.22 154.568 243.749 152.925C247.277 151.283 251.936 152.712 253.93 156.002C255.531 158.648 255.716 162.387 258.431 163.917C259.843 164.711 261.625 164.661 263.042 165.467C264.966 166.54 265.733 168.822 266.85 170.701C269.498 175.165 274.943 177.675 280.116 177.141C285.88 176.559 288.63 172.178 293.355 169.57C297.871 167.075 303.509 167.528 308.273 165.533C310.299 164.684 312.326 163.065 312.357 160.883C312.384 159.194 311.177 157.637 311.314 155.955C311.511 153.681 313.931 152.383 315.516 150.721C318.49 147.621 318.435 142.162 315.398 139.098C313.313 137.001 310.071 135.897 308.907 133.197C308.159 131.465 308.474 129.469 308.037 127.633C307.573 125.695 306.286 124.041 304.917 122.569C303.548 121.097 302.045 119.713 300.983 118.009C297.596 112.565 302.164 107.652 307.514 106.122C310.901 105.149 314.513 105.324 318.018 105.734C320.808 106.06 323.92 106.44 326.166 104.766C328.629 102.921 329.345 99.0084 332.307 98.1445C334.491 97.509 336.686 98.9194 338.551 100.214C340.415 101.507 342.752 102.782 344.844 101.891C347.351 100.825 347.667 97.354 346.735 94.8239C345.8 92.2939 344.027 90.0469 343.663 87.3812C343.095 83.2666 346.659 79.0666 350.874 78.8883C352.48 78.8188 354.236 79.2216 355.594 78.3886C357.977 76.9356 357.274 73.0301 359.351 71.1743C361.204 69.5237 364.145 70.3685 366.371 71.4806C368.595 72.5923 371.14 73.9251 373.45 72.972C376.276 71.8097 376.768 68.0243 378.932 65.8857C379.653 65.163 380.557 64.6397 381.547 64.3684C382.541 64.097 383.587 64.087 384.584 64.3393C385.582 64.5916 386.493 65.0973 387.23 65.8058C387.964 66.5146 388.501 67.401 388.778 68.377C389.648 71.3525 388.207 75.1379 390.461 77.2883C392.11 78.869 394.004 79.0628 396.318 78.8769C398.631 78.6907 401.118 78.3422 403.057 79.5664C405.374 81.027 405.897 84.0648 407.078 86.5093C408.221 88.8729 410.299 90.9378 412.903 91.4532C415.507 91.9685 418.552 90.5194 419.23 87.9893C419.708 86.211 419.04 84.1849 419.909 82.5651C420.848 80.8179 423.088 80.3181 425.024 79.7834C426.96 79.2486 429.145 78.0864 429.222 76.1143C429.284 74.4948 427.847 73.1582 427.681 71.5501C427.497 69.7061 428.976 68.1638 430.254 66.8116C431.532 65.4596 432.803 63.6152 432.127 61.8871C431.279 59.7135 427.798 59.086 427.573 56.7692C427.428 55.3045 428.73 54.1304 429.301 52.7706C429.873 51.4107 429.696 49.9269 429.464 48.5089C429.232 47.0906 428.9 45.638 429.163 44.2196C429.426 42.8016 430.441 41.3992 431.888 41.1939C433.235 41.0039 434.503 41.8678 435.431 42.8327C436.359 43.7974 437.197 44.9288 438.403 45.5449C440.584 46.6763 443.248 45.7813 445.513 44.8087C447.781 43.8361 450.326 42.7864 452.629 43.6464" stroke="white" stroke-width="0.5" stroke-linecap="round" stroke-linejoin="round"/>
<path d="M167.791 214.475C169.29 214.142 170.269 212.7 170.773 211.267C171.277 209.833 171.477 208.288 172.209 206.951C174.058 203.584 178.677 202.708 182.493 203.433C186.309 204.157 189.815 206.06 193.623 206.807C195.905 207.253 198.651 207.106 200.04 205.258C201.22 203.708 200.949 201.492 200.374 199.62C199.8 197.749 198.977 195.854 199.229 193.917C199.622 190.817 202.825 188.629 205.988 188.338C209.151 188.047 212.251 189.221 215.123 190.55C217.996 191.879 220.848 193.406 223.987 193.894C227.127 194.382 230.699 193.588 232.568 191.058C233.842 189.33 234.193 186.994 235.747 185.502C238.178 183.177 242.604 183.774 244.795 181.24C246.302 179.508 246.192 176.916 245.582 174.715C244.972 172.515 243.945 170.384 243.886 168.102C243.827 165.82 245.181 163.247 247.463 162.945C249.158 162.705 250.807 163.786 251.79 165.161C252.774 166.536 253.289 168.183 253.942 169.745C255.001 172.278 255.937 173.685 258.592 174.909C260.205 175.657 261.925 176.215 263.404 177.195C265.332 178.443 266.725 180.341 268.392 181.93C275.183 188.423 288.158 183.681 293.819 177.865C294.045 177.633 294.265 177.396 294.48 177.156C296.211 175.219 297.682 172.894 300.016 171.685C302.16 170.577 304.737 170.589 307.125 170.911C309.513 171.232 311.901 171.852 314.324 171.856C317.303 171.856 320.344 170.876 322.488 168.838C324.632 166.8 325.757 163.665 325.037 160.818C324.341 158.059 322.063 155.781 321.85 152.933C321.638 150.035 323.617 147.509 325.25 145.072C326.882 142.635 328.283 139.512 326.902 136.935C325.596 134.502 322.008 133.793 320.93 131.341C320.371 130.074 320.741 128.706 319.997 127.397C319.098 125.94 317.877 124.702 316.425 123.774C313.777 121.98 310.571 119.942 310.493 116.777C310.406 113.174 314.635 110.88 318.294 110.876C321.953 110.872 325.529 112.255 329.184 112.073C331.603 111.953 333.948 111.151 336.364 111.035C340.129 110.856 343.76 112.348 347.5 112.77C351.244 113.193 355.743 112.027 357.069 108.551C358.319 105.27 356.169 101.786 354.34 98.78C352.508 95.7733 350.967 91.7439 353.159 88.9854C355.151 86.4941 359.341 86.3661 361 83.6463C362.018 81.9764 362.046 79.4193 363.906 78.7527C365.769 78.0864 367.469 80.0818 369.229 81.0543C371.947 82.5537 375.303 81.5462 378.354 80.9149C381.402 80.2832 385.26 80.4109 386.777 83.0922C388.456 86.0563 386.074 90.256 388.124 92.9875C389.263 94.5142 391.435 94.9482 393.346 94.7077C395.258 94.4675 397.052 93.6887 398.929 93.2627C400.972 92.8065 403.088 92.7632 405.145 93.1353C407.206 93.5077 409.17 94.2878 410.912 95.4286C412.425 96.432 413.755 97.6987 415.324 98.6173C416.893 99.5355 418.835 100.074 420.546 99.4542C422.444 98.7682 423.552 96.8968 424.726 95.2812C425.897 93.6655 427.566 92.3018 429.623 91.9955C431.681 91.6896 433.672 93.0301 435.774 92.8172C438.025 92.5922 439.687 90.535 440.321 88.4002C441.01 86.0179 440.761 83.4664 439.618 81.2596C438.278 78.7101 435.819 76.7923 434.856 74.084C434.465 72.9495 434.354 71.7388 434.534 70.5534C434.718 69.3683 435.185 68.2431 435.899 67.273C437.159 65.595 439.147 64.429 439.958 62.4994C441.121 59.7409 439.448 56.4709 440.411 53.6425C441.076 51.7053 442.908 50.3181 444.889 49.6906C446.867 49.0628 448.993 49.0901 451.064 49.2064" stroke="white" stroke-width="0.5" stroke-linecap="round" stroke-linejoin="round"/>
<path d="M197.742 213.936C200.43 213.754 203.168 213.549 205.662 212.565C208.156 211.581 210.41 209.609 211.032 207.028C211.492 205.126 211.032 203.154 211.091 201.182C211.15 199.21 212.024 197.009 213.936 196.478C217.189 195.568 220.085 200.174 223.338 199.268C224.648 198.904 225.608 197.691 226.942 197.42C229.81 196.831 232.757 200.763 235.172 199.132C237.411 197.621 235.396 193.673 237.183 191.654C238.363 190.333 240.487 190.589 242.199 191.081C243.91 191.573 245.865 192.158 247.372 191.221C250.339 189.38 248.049 184.498 249.859 181.534C251.295 179.19 255.449 179.338 256.712 181.775C257.554 183.402 257.129 185.382 256.421 187.067C255.713 188.753 254.733 190.361 254.454 192.166C254.175 193.971 254.875 196.106 256.598 196.765C258.911 197.644 261.217 195.467 262.46 193.359C263.703 191.251 264.978 188.71 267.409 188.225C270.163 187.683 272.697 190.225 275.518 190.163C278.079 190.116 280.549 187.943 282.941 188.841C284.165 189.307 284.948 190.453 285.88 191.36C286.813 192.267 288.264 192.98 289.393 192.329C291.085 191.356 290.334 188.508 291.79 187.222C293.363 185.812 295.877 187.485 296.979 189.295C298.08 191.104 299.15 193.417 301.279 193.661C303.663 193.937 305.355 191.236 305.445 188.873C305.535 186.509 304.701 184.15 305.052 181.805C305.76 177.044 310.886 177.703 314.313 178.772C316.713 179.516 319.821 179.876 321.288 177.861C322.228 176.556 322.099 174.642 323.255 173.514C324.518 172.282 326.588 172.623 328.338 172.921C330.089 173.22 332.296 173.185 333.142 171.643C334.295 169.539 331.671 166.951 332.465 164.688C333.323 162.255 337.355 162.178 338.225 159.748C338.752 158.276 337.753 156.649 336.431 155.781C335.109 154.913 333.512 154.619 332.029 154.049C330.545 153.479 329.046 152.584 328.535 151.108C328.023 149.632 328.677 147.904 329.66 146.625C330.644 145.347 331.93 144.32 332.906 143.038C335.754 139.295 335.266 133.48 331.836 130.252C330.966 129.431 329.829 128.423 330.227 127.304C330.565 126.347 331.863 126.017 332.284 125.091C332.827 123.89 331.521 122.615 330.227 122.275C328.932 121.934 327.473 122.038 326.351 121.353C324.719 120.372 324.384 117.943 325.439 116.366C326.493 114.789 328.586 114.084 330.474 114.313C332.363 114.541 334.094 115.587 335.51 116.839C337.363 118.497 338.909 120.663 341.267 121.488C344.1 122.499 347.168 121.298 350.039 120.353C352.91 119.407 356.335 118.803 358.659 120.709C361.52 123.061 365.707 122.108 368.155 119.342C370.607 116.575 370.41 111.922 367.739 109.365C366.694 108.369 365.378 107.695 364.287 106.746C363.192 105.797 362.32 104.398 362.6 102.995C362.974 101.166 365.09 100.171 365.748 98.4311C366.694 96.0059 364.508 93.4717 364.484 90.8721C364.481 89.9016 364.778 88.9536 365.346 88.1589C365.911 87.3646 366.714 86.7631 367.642 86.4388C368.571 86.1141 369.578 86.0823 370.527 86.3477C371.476 86.6132 372.318 87.1625 372.931 87.9198C374.025 89.2682 374.275 91.0853 374.389 92.8054C374.503 94.5256 374.541 96.3157 375.313 97.8424C376.082 99.3687 377.866 100.616 379.549 100.144C381.232 99.6709 382.198 97.7375 383.878 97.3191C386.049 96.7805 387.968 99.0666 388.287 101.248C388.605 103.429 387.978 105.661 388.242 107.835C388.505 110.008 390.281 112.379 392.484 111.995C394.69 111.612 395.514 108.974 395.826 106.792C396.138 104.611 396.733 101.98 398.87 101.325C400.571 100.806 402.326 101.883 404.1 102.019C406.268 102.19 408.325 100.946 410.493 100.957C412.955 100.957 415.071 102.561 417.153 103.855C419.234 105.149 421.873 106.223 424.093 105.169C426.157 104.185 427.421 101.527 429.717 101.496C431.809 101.469 433.142 103.685 433.707 105.669C434.275 107.652 434.683 109.931 436.432 111.073C436.997 111.441 437.655 111.645 438.333 111.663C439.012 111.681 439.681 111.511 440.266 111.173C440.851 110.836 441.329 110.345 441.644 109.754C441.963 109.163 442.105 108.497 442.056 107.831C441.959 106.42 441.042 105.223 440.311 104.007C439.577 102.79 439.012 101.271 439.632 99.9966C440.283 98.6557 441.994 98.1639 443.487 98.1871C444.983 98.2103 446.5 98.6094 447.992 98.4235" stroke="white" stroke-width="0.5" stroke-linecap="round" stroke-linejoin="round"/>
<path d="M218.723 217.989C221.084 218.218 221.965 214.855 221.221 212.63C220.478 210.407 219.026 208.039 220.018 205.912C221.009 203.785 224.014 203.297 226.312 203.994C228.61 204.692 230.561 206.203 232.816 207.009C235.07 207.815 238.032 207.667 239.338 205.684C241.172 202.902 238.945 197.935 242.013 196.555C243.335 195.955 244.929 196.579 245.995 197.551C247.061 198.524 247.785 199.802 248.749 200.872C249.808 202.051 251.141 202.961 252.634 203.523C254.127 204.086 255.736 204.284 257.324 204.102C258.912 203.92 260.431 203.362 261.753 202.476C263.075 201.591 264.16 200.403 264.915 199.016C266.39 196.304 267.22 192.39 270.316 192.042C273.979 191.654 276.072 197.055 279.758 197.036C281.56 197.036 283.272 195.653 285.014 196.098C287.273 196.676 287.855 199.798 289.956 200.798C291.683 201.623 293.697 200.713 295.601 200.484C298.104 200.182 300.566 201.096 303.057 201.492C305.547 201.887 308.49 201.569 309.934 199.554C312.762 195.575 307.447 189.093 310.827 185.575C312.4 183.94 314.997 183.987 317.271 184.153L329.254 185.029C331.041 185.161 332.968 185.262 334.479 184.312C336.84 182.828 337.095 179.558 336.903 176.8C336.71 174.041 336.442 170.918 338.327 168.873C340.125 166.935 343.123 166.777 345.803 166.59C348.48 166.404 351.542 165.753 352.73 163.398C354.112 160.666 351.978 157.346 349.294 155.816C346.614 154.285 343.431 153.816 340.699 152.371C337.725 150.79 334.896 146.769 337.457 143.63C339.141 141.565 342.129 142.809 343.615 140.713C344.38 139.632 344.162 138.144 343.615 136.931C343.067 135.719 342.278 134.626 341.911 133.359C341.582 132.224 341.627 131.016 342.035 129.907C342.444 128.797 343.196 127.842 344.186 127.178C345.176 126.514 346.354 126.174 347.552 126.206C348.751 126.238 349.907 126.641 350.86 127.358C352.148 128.33 353.142 129.895 354.752 130.093C356.449 130.295 357.831 128.861 359.372 128.125C361.609 127.059 364.238 127.493 366.718 127.687C369.194 127.881 372.027 127.656 373.602 125.75C374.925 124.153 374.922 121.852 374.482 119.838C374.042 117.823 373.235 115.858 373.187 113.793C373.142 111.728 374.125 109.434 376.11 108.791C377.661 108.287 379.389 108.931 380.64 109.954C381.89 110.976 382.79 112.352 383.788 113.611C385.956 116.323 388.924 118.648 392.408 118.997C395.888 119.345 398.579 117.416 399.556 114.2C399.975 112.817 400.228 111.36 400.934 110.093C401.644 108.826 402.953 107.749 404.418 107.842C405.88 107.935 407.088 109.202 408.505 109.748C410.538 110.523 412.806 109.748 414.894 109.129C416.983 108.509 419.438 108.043 421.19 109.318C422.607 110.345 423.109 112.158 423.805 113.747C426.122 119.008 435.268 125.579 440.809 120.636C442.132 119.454 442.877 117.714 444.321 116.684C446.763 114.94 450.146 115.82 453 116.761L452.214 116.943" stroke="white" stroke-width="0.5" stroke-linecap="round" stroke-linejoin="round"/>
<path d="M237.776 214.529C238.992 215.691 241.187 214.812 242.045 213.367C242.903 211.922 242.938 210.155 243.375 208.531C243.811 206.908 244.976 205.207 246.676 205.157C249.253 205.075 250.366 208.547 252.742 209.531C255.842 210.813 258.852 207.381 262.184 206.904C264.962 206.517 268.479 208.001 270.202 205.823C271.854 203.742 270.351 199.624 272.881 198.737C274.109 198.307 275.458 199.171 276.139 200.263C276.819 201.356 277.067 202.654 277.602 203.824C279.455 207.896 285.184 209.682 289.078 207.404C290.452 206.598 291.636 205.37 293.205 205.079C296.797 204.393 299.815 208.892 303.434 208.279C306.133 207.822 307.762 204.672 310.473 204.335C312.227 204.114 313.856 205.149 315.512 205.753C317.168 206.358 319.447 206.319 320.233 204.75C321.052 203.084 319.513 201.313 318.573 199.713C317.452 197.795 317.141 195.533 316.854 193.34C316.677 191.96 316.519 190.461 317.247 189.275C318.27 187.617 320.67 187.28 322.535 187.915C324.4 188.551 325.891 189.903 327.468 191.065C329.046 192.228 330.911 193.258 332.87 193.068C337.198 192.65 339.401 186.761 343.736 186.536C345.204 186.459 346.603 187.079 348.03 187.431C349.453 187.784 351.175 187.799 352.182 186.757C353.602 185.3 352.782 182.828 351.459 181.286C349.699 179.244 345.634 175.928 348.418 172.991C349.471 171.883 351.594 171.778 352.972 171.317C355.026 170.706 356.917 169.663 358.517 168.26C361.294 165.668 362.264 160.81 359.49 158.214C357.914 156.734 355.213 155.854 355.161 153.708C355.102 151.468 358.247 149.601 357.266 147.575C356.48 145.963 354.118 146.366 352.328 146.005C351.306 145.792 350.385 145.251 349.71 144.467C349.031 143.682 348.64 142.699 348.591 141.671C348.543 140.643 348.844 139.629 349.443 138.786C350.042 137.944 350.908 137.322 351.909 137.017C354.129 136.354 356.809 137.296 358.697 135.963C359.524 135.378 360.037 134.444 360.809 133.797C364.12 131.046 369.467 134.847 373.402 133.084C375.008 132.336 376.082 130.787 377.422 129.624C378.759 128.462 380.868 127.687 382.292 128.745C384.009 130.043 383.286 132.697 383.767 134.773C384.48 137.873 388.487 139.593 391.441 138.299C394.396 137.005 395.829 133.297 394.88 130.26C394.489 128.981 393.699 127.764 393.744 126.428C393.782 124.743 395.154 123.27 396.778 122.739C398.402 122.209 400.207 122.483 401.793 123.127C403.59 123.847 405.727 124.987 407.279 123.828C408.993 122.545 408.092 119.88 408.491 117.792C408.671 116.839 409.152 115.967 409.869 115.301C410.583 114.635 411.493 114.208 412.47 114.083C413.447 113.957 414.437 114.139 415.303 114.602C416.169 115.065 416.861 115.785 417.287 116.66C418.309 118.772 417.679 121.588 419.327 123.286C421.336 125.37 425.142 124.161 427.528 125.82C429.01 126.846 429.564 128.714 430.524 130.233C431.483 131.751 433.516 133.038 435.029 132.05C436.331 131.201 436.501 129.078 437.98 128.586C439.521 128.071 440.91 129.942 440.834 131.546C440.754 133.15 439.871 134.61 439.653 136.195C439.507 137.278 439.684 138.379 440.158 139.367C440.633 140.354 441.384 141.187 442.323 141.766C443.265 142.345 444.352 142.645 445.464 142.632C446.572 142.618 447.653 142.291 448.577 141.689" stroke="white" stroke-width="0.5" stroke-linecap="round" stroke-linejoin="round"/>
<path d="M317.672 212.092C322.492 213.006 327.626 208.911 327.716 204.08C327.775 201.112 326.572 197.319 329.129 195.746C332.162 193.882 335.526 198.109 339.094 198.299C341.246 198.411 343.151 197.024 345.208 196.397C348.176 195.494 351.372 196.195 354.468 195.982C357.564 195.769 361.073 193.975 361.246 190.945C361.464 187.191 356.571 184.704 356.494 180.945C356.429 177.458 360.304 175.432 363.549 174.072C366.794 172.712 370.555 170.236 369.945 166.815C369.329 163.328 364.252 160.98 365.402 157.629C366.119 155.529 369.1 154.557 369.277 152.344C369.495 149.655 365.738 148.795 363.577 147.145C361.128 145.281 360.647 141.376 362.565 138.989C364.484 136.602 368.467 136.168 370.86 138.09C372.38 139.307 373.18 141.19 374.399 142.701C377.828 147.036 383.94 148.063 389.471 148.776C391.93 149.094 394.936 149.182 396.304 147.148C397.88 144.805 396.332 140.802 398.784 139.357C400.633 138.272 403.13 139.83 405.121 139.02C407.237 138.152 407.448 135.328 407.362 133.069C407.275 130.81 407.653 127.955 409.842 127.28C412.107 126.579 414.126 128.923 414.988 131.101C415.85 133.278 416.564 135.886 418.725 136.823C422.268 138.373 426.527 134.111 429.911 135.924C432.21 137.16 432.377 140.302 432.145 142.871C431.913 145.44 431.777 148.497 433.848 150.07C435.923 151.643 438.898 150.729 441.506 150.36C444.113 149.992 447.653 151.174 447.431 153.762" stroke="white" stroke-width="0.5" stroke-linecap="round" stroke-linejoin="round"/>
<path d="M333.079 214.11C334.507 214.568 335.915 213.119 336.155 211.662C336.395 210.205 335.927 208.733 335.868 207.257C335.809 205.781 336.395 204.052 337.835 203.63C339.523 203.134 341.038 204.68 342.25 205.955C343.462 207.229 345.561 208.33 346.825 207.117C347.577 206.397 347.57 205.211 348.065 204.304C349.332 202.007 352.785 202.596 355.293 203.479C357.797 204.363 361.298 204.843 362.451 202.487C362.957 201.449 362.745 200.205 363.113 199.112C364.335 195.439 370.898 195.49 371.608 191.689C372.359 187.652 365.357 185.188 366.202 181.166C366.645 179.051 369.149 177.997 371.345 177.966C373.537 177.935 375.733 178.57 377.904 178.272C380.075 177.973 382.34 176.199 381.973 174.068C381.419 170.848 375.677 169.768 376.328 166.567C376.72 164.723 379.203 163.855 379.518 161.987C379.937 159.52 376.415 158.26 375.445 155.947C374.344 153.305 377.315 150.399 380.21 150.449C383.106 150.5 385.578 152.484 387.597 154.518C389.62 156.552 391.559 158.861 394.257 159.919C396.952 160.976 400.678 160.166 401.613 157.466C402.133 155.978 401.876 153.979 403.262 153.204C404.536 152.487 406.094 153.487 407.113 154.529C408.131 155.572 409.329 156.811 410.784 156.606C412.439 156.373 413.208 154.359 413.01 152.731C412.813 151.104 412.02 149.551 411.978 147.9C411.947 146.574 412.408 145.282 413.277 144.269C414.143 143.255 415.359 142.59 416.692 142.399C418.025 142.208 419.383 142.505 420.508 143.233C421.634 143.961 422.451 145.07 422.801 146.35C423.196 147.795 422.971 149.33 423.144 150.817C423.317 152.305 424.096 153.917 425.568 154.304C426.749 154.599 427.93 154.006 429.107 153.677C430.288 153.347 431.823 153.46 432.311 154.553C432.661 155.327 432.262 156.253 432.335 157.113C432.474 158.752 434.223 159.787 435.875 160.143C437.527 160.5 439.272 160.488 440.709 161.306C442.306 162.236 443.154 164.018 443.823 165.703C444.491 167.388 445.121 169.19 446.482 170.438C447.843 171.685 450.216 172.046 451.459 170.697" stroke="white" stroke-width="0.5" stroke-linecap="round" stroke-linejoin="round"/>
<path d="M353.509 214.514C354.919 215.021 356.352 213.739 357.028 212.441C357.7 211.143 358.077 209.566 359.237 208.632C362.184 206.265 367.542 209.709 370.091 206.932C371.712 205.161 370.732 202.247 371.743 200.078C372.865 197.679 375.902 196.978 378.479 196.257C381.055 195.537 383.989 193.77 383.75 191.139C383.604 189.489 382.233 188.253 381.09 187.036C379.951 185.82 378.908 184.111 379.577 182.588C380.851 179.667 386.222 181.279 387.937 178.582C389.184 176.618 387.445 174.2 386.95 171.933C386.288 168.923 388.131 165.672 390.946 164.324C393.762 162.976 397.242 163.421 399.874 165.099C401.571 166.199 402.915 167.757 404.498 169.016C406.077 170.275 408.093 171.263 410.094 170.899C413.242 170.322 414.662 166.912 416.955 165.087C419.809 162.817 422.784 160.984 426.614 162.151C428.401 162.737 429.956 163.866 431.05 165.376C432.148 166.886 432.73 168.698 432.716 170.554C432.685 171.678 432.435 172.879 432.924 173.879C433.495 175.068 434.946 175.641 436.28 175.583C438.292 175.498 440.138 174.448 442.181 174.266C444.983 174.018 447.469 175.886 449.637 177.648" stroke="white" stroke-width="0.5" stroke-linecap="round" stroke-linejoin="round"/>
<path d="M370.683 214.812C374.915 215.044 379.047 211.74 379.684 207.613C379.968 205.777 379.639 203.859 380.19 202.084C381.27 198.597 386.091 196.885 389.177 198.876C389.983 199.396 390.714 200.132 391.67 200.259C393.301 200.48 394.579 198.872 396.169 198.469C397.758 198.067 399.313 198.876 400.778 199.488C402.243 200.101 404.127 200.488 405.343 199.45C406.697 198.287 406.285 195.963 405 194.75C403.715 193.537 401.876 193.065 400.141 192.607C398.406 192.15 396.577 191.573 395.452 190.194C394.326 188.814 394.378 186.393 395.982 185.594C397.859 184.661 400.816 186.246 401.918 184.479C402.579 183.417 401.821 182.046 400.934 181.155C400.051 180.263 398.967 179.392 398.811 178.152C398.638 176.579 400.248 175.258 401.848 175.11C403.448 174.963 404.996 175.645 406.454 176.311C407.916 176.978 409.461 177.66 411.064 177.505C413.273 177.295 414.998 175.568 416.259 173.751C417.523 171.933 418.538 169.918 420.252 168.532C421.97 167.144 424.74 166.68 426.323 168.218C427.504 169.38 427.628 171.232 427.466 172.867C427.299 174.502 426.939 176.218 427.466 177.788C428.325 180.322 431.4 181.662 434.08 181.224C435.261 181.031 436.57 180.585 437.571 181.224C438.822 182.034 438.648 183.936 439.615 185.075C441.734 187.547 446.693 184.176 448.886 186.567" stroke="white" stroke-width="0.5" stroke-linecap="round" stroke-linejoin="round"/>
<path d="M386.642 215.126C386.458 211.941 388.647 208.927 391.521 207.458C394.396 205.99 397.817 205.881 401.007 206.451C403.826 206.958 406.624 207.977 409.478 207.71C412.747 207.4 415.836 205.18 416.834 202.1C417.835 199.02 416.463 195.273 413.554 193.778C411.566 192.759 409.059 192.751 407.362 191.309C406.735 190.772 406.275 190.071 406.036 189.287C405.8 188.503 405.79 187.669 406.015 186.881C406.268 186.102 406.759 185.418 407.424 184.924C408.086 184.43 408.886 184.15 409.717 184.122C411.445 184.122 413.184 185.265 414.804 184.669C417.36 183.731 416.976 179.601 419.313 178.214C421.076 177.168 423.438 178.349 424.591 180.031C425.745 181.712 426.139 183.782 427.023 185.614C427.909 187.446 429.648 189.182 431.698 188.989C432.581 188.907 433.433 188.465 434.316 188.555C435.767 188.698 436.678 190.151 438.004 190.759C439.577 191.484 441.398 190.922 443.075 190.504C444.751 190.085 446.777 189.903 447.978 191.131" stroke="white" stroke-width="0.5" stroke-linecap="round" stroke-linejoin="round"/>
<path d="M412.415 213.343C414.728 213.08 417.114 212.793 419.14 211.662C421.166 210.531 422.763 208.326 422.434 206.055C422.274 204.994 421.717 203.936 421.987 202.898C422.531 200.794 426.022 200.224 426.084 198.055C426.112 197.032 425.277 196.168 424.363 195.676C423.452 195.184 422.396 194.932 421.53 194.397C420.079 193.518 419.13 191.782 419.424 190.135C419.715 188.489 421.391 187.106 423.071 187.323C424.751 187.54 425.918 189.047 426.586 190.569C427.255 192.092 427.642 193.77 428.671 195.083C429.703 196.397 431.705 197.202 433.087 196.246C434.056 195.571 434.482 194.192 435.611 193.82C436.397 193.568 437.235 193.89 437.883 194.37C438.527 194.851 439.061 195.486 439.68 195.982C441.914 197.726 445.554 197.322 447.334 195.134" stroke="white" stroke-width="0.5" stroke-linecap="round" stroke-linejoin="round"/>
<path d="M424.501 214.087C425.291 214.348 426.132 214.422 426.957 214.303C427.781 214.184 428.564 213.875 429.246 213.402C429.925 212.929 430.482 212.304 430.87 211.579C431.261 210.854 431.469 210.049 431.487 209.229C431.518 207.373 430.548 205.579 430.718 203.727C430.974 200.968 434.219 198.904 436.879 199.806C437.97 200.194 438.887 200.934 439.982 201.302C441.973 201.968 444.134 201.236 446.143 200.616C448.155 199.996 450.472 199.52 452.259 200.593" stroke="white" stroke-width="0.5" stroke-linecap="round" stroke-linejoin="round"/>
</g>
</g>
<defs>
<clipPath id="clip0_4_83">
<rect width="565" height="365" fill="white"/>
</clipPath>
</defs>
</svg>
